<svg width="1306" height="265" viewBox="0 0 1306 265" fill="none" xmlns="http://www.w3.org/2000/svg">
<path d="M133 0.499973C159.333 0.499973 182.5 6.16665 202.5 17.5C222.833 28.5 238.5 44.1667 249.5 64.5C260.5 84.5 266 107.667 266 134C265.667 160 259.833 183 248.5 203C237.5 222.667 222 238 202 249C182 259.667 159 265 133 265C107 265 84 259.667 64 249C44 238 28.3333 222.667 17 203C6 183 0.333334 160 7.07805e-07 134C7.07805e-07 107.667 5.5 84.5 16.5 64.5C27.8333 44.1667 43.5 28.5 63.5 17.5C83.5 6.16665 106.667 0.499973 133 0.499973ZM133 215C155.333 215 173.333 207.5 187 192.5C200.667 177.5 207.5 158 207.5 134C207.5 109.333 200.667 89.3333 187 74C173.333 58.3333 155.333 50.5 133 50.5C110.667 50.5 92.6667 58.3333 79 74C65.3333 89.3333 58.5 109.333 58.5 134C58.5 158 65.3333 177.5 79 192.5C92.6667 207.5 110.667 215 133 215ZM677.105 5.5C684.772 5.5 691.605 7.83333 697.605 12.5C703.605 17.1666 706.605 23.5 706.605 31.5V233C706.605 241.333 703.605 248 697.605 253C691.605 257.667 684.772 260 677.105 260C669.439 260 662.772 257.667 657.105 253C651.439 248.333 648.605 241.667 648.605 233V155.5H508.605V233C508.605 241.667 505.772 248.333 500.105 253C494.439 257.667 487.939 260 480.605 260C472.605 260 465.605 257.667 459.605 253C453.939 248 451.105 241.333 451.105 233V31.5C451.105 23.5 453.772 17.1666 459.105 12.5C464.772 7.83333 471.439 5.5 479.105 5.5C487.105 5.5 493.939 7.83333 499.605 12.5C505.605 17.1666 508.605 23.5 508.605 31.5V107H648.605V31.5C648.605 23.5 651.439 17.1666 657.105 12.5C662.772 7.83333 669.439 5.5 677.105 5.5ZM983.242 5.5C991.576 5.5 998.409 8 1003.74 13C1009.08 17.6667 1011.74 23.8333 1011.74 31.5V234C1011.74 241.667 1009.08 248 1003.74 253C998.409 257.667 991.576 260 983.242 260C975.242 260 968.742 258.167 963.742 254.5C959.076 250.5 956.242 245.333 955.242 239C944.242 247.667 931.742 254.167 917.742 258.5C904.076 262.833 890.576 265 877.242 265C853.242 265 832.409 259.5 814.742 248.5C797.409 237.5 784.076 222 774.742 202C765.409 182 760.742 158.667 760.742 132C760.742 106.333 765.909 83.6667 776.242 64C786.576 44 800.909 28.5 819.242 17.5C837.909 6.16665 859.409 0.499973 883.742 0.499973C895.076 0.499973 907.076 2.66664 919.742 6.99998C932.742 11.3333 944.576 17.5 955.242 25.5C956.576 19.1667 959.576 14.3333 964.242 11C969.242 7.33333 975.576 5.5 983.242 5.5ZM883.242 214.5C898.909 214.5 913.242 211.167 926.242 204.5C939.576 197.833 949.076 188.333 954.742 176V89.5C948.742 77.5 939.409 68.1667 926.742 61.5C914.409 54.5 901.409 51 887.742 51C866.742 51 849.742 58.6667 836.742 74C824.076 89 817.742 108.5 817.742 132.5C817.742 157.167 823.742 177 835.742 192C847.742 207 863.576 214.5 883.242 214.5ZM1256.35 74C1249.01 65.6667 1240.35 59.5 1230.35 55.5C1220.35 51.5 1209.85 49.5 1198.85 49.5C1176.85 49.5 1159.18 57.1667 1145.85 72.5C1132.51 87.8333 1125.85 108.167 1125.85 133.5C1125.85 158.167 1132.68 178 1146.35 193C1160.01 208 1178.18 215.5 1200.85 215.5C1211.51 215.5 1221.85 213.667 1231.85 210C1242.18 206.333 1251.18 200.667 1258.85 193C1266.51 185.333 1274.35 181.5 1282.35 181.5C1289.01 181.5 1294.51 183.833 1298.85 188.5C1303.51 192.833 1305.85 198.333 1305.85 205C1305.85 212.333 1303.01 219 1297.35 225C1285.01 238.667 1270.51 248.833 1253.85 255.5C1237.18 261.833 1219.35 265 1200.35 265C1174.01 265 1150.85 259.667 1130.85 249C1111.18 238 1095.85 222.667 1084.85 203C1073.85 183 1068.35 160 1068.35 134C1068.35 107.333 1073.68 84 1084.35 64C1095.35 43.6667 1110.68 28 1130.35 17C1150.01 5.99998 1172.85 0.499973 1198.85 0.499973C1218.18 0.499973 1235.51 3.66665 1250.85 10C1266.51 16 1280.85 26.3333 1293.85 41C1299.18 47.3333 1301.85 53.5 1301.85 59.5C1301.85 66.5 1299.35 72.3333 1294.35 77C1289.35 81.6667 1283.51 84 1276.85 84C1268.85 84 1262.01 80.6667 1256.35 74Z" fill="#E9FA9C"/>
</svg>
