<svg width="456" height="770" viewBox="0 0 456 770" fill="none" xmlns="http://www.w3.org/2000/svg">
<g clip-path="url(#clip0_1615_830)">
<path d="M404 378.001C446.235 364.214 393.518 308.298 372 297.001C391.21 278.998 381.529 249.595 379 227.001C373.016 200.311 367.697 172.633 357 147.001C349.371 134.941 366.851 136.782 362 114.001C350.598 65.8278 282.224 27.9248 235 20.0008C231.213 19.4253 226.842 18.8938 223 19.0008C222.199 19.0276 221.332 19.0047 221 18.0008C212.763 1.09543 189.612 -4.94042 173 4.00083C168.495 6.24953 164.654 9.85145 162 14.0008C160.812 15.8614 160.004 16.2953 158 16.0008C138.721 13.4577 118.474 15.5069 102 26.0008C98.3377 27.4732 92.317 34.1386 89.0001 33.0008C73.3001 24.354 48.3041 35.3899 48.0001 52.0008C47.9863 52.7772 48.0415 74.0134 62.0001 88.0008C68.2884 94.3052 73.0416 93.0103 73.0001 94.0008C72.9863 95.0047 72.9586 97.9969 73.0001 99.0008C73.0692 99.4292 73.0139 99.5591 73.0001 100.001C73.8155 110.829 78.4403 120.823 86.0001 129.001C83.2084 148.931 79.2173 171.053 81.0001 192.001C83.1837 204.596 84.007 217.811 91.0001 229.001C92.0504 232.28 76.9922 227.474 67.0001 250.001C60.8777 263.788 71.7848 269.707 90.0001 263.001C90.6358 262.773 90.2765 263.559 90.0001 264.001C85.8816 270.064 84.4878 277.442 82.0001 284.001C66.1205 299.006 57.5796 320.053 54.0001 341.001C48.4996 367.142 44.1421 442.224 84.0001 443.001C87.4414 441.569 84.0189 459.056 85.0001 462.001C84.4196 464.464 87.3308 470.586 84.0001 471.001C70.0691 471.483 56.1077 476.333 47.0001 487.001C42.8678 492.663 -40.785 509.844 25.0001 540.001C43.2154 548.353 30.0178 537.719 42.0001 559.001C48.4957 569.321 59.0178 577.003 71.0001 580.001C74.8283 582.236 72.3693 589.199 74.0001 593.001C77.7592 617.803 85.0622 645.47 106 662.001C107.133 662.857 108.221 663.729 108 665.001C106.134 676.512 104.571 688.597 102 700.001C98.8076 704.953 91.6576 707.199 87.0001 711.001C79.5924 717.747 79.0287 720.566 82.0001 733.001C83.5618 739.56 90.1264 742.685 96.0001 745.001C110.249 750.596 123.736 742.8 135 736.001C150.465 726.31 156.816 708.027 159 691.001C159.539 687.333 167.333 693.228 170 693.001C175.266 709.612 163.535 720.587 151 731.001C144.104 737.426 121.889 749.538 136 759.001C137.907 759.643 138.157 760.381 139 762.001C140.88 767.556 147.78 763.561 151 767.001C153.681 770.521 158.932 767.391 162 770.001C176.111 777.229 201.538 754.344 212 745.001C222.918 730.518 214.789 710.692 217 694.001C217 693.024 217.074 693.215 218 693.001C221.524 692.251 225.779 691.19 226 687.001C227.437 667.191 228.977 646.851 230 627.001C232.695 583.004 233.545 537.543 237 494.001C239.488 542.616 241.609 592.333 244 641.001C244.511 650.959 244.655 661.029 245 671.001C245.691 679.795 242.465 692.689 255 694.001C260.957 708.202 248.267 727.95 260 741.001C272.134 748.751 319.206 780.39 330 766.001C333.317 762.896 339.093 765.154 341 760.001C345.879 754.941 350.848 756.437 351 747.001C350.281 742.557 364.439 744.845 369 730.001C371.916 725.329 379.172 725.338 383 721.001C400.331 706.933 406.317 683.23 403 662.001C402.724 652.404 393.071 644.063 399 635.001C405.15 617.346 398.493 625.194 411 620.001C423.01 610.35 421.729 588.514 409 580.001C401.413 573.201 393.201 581.76 389 575.001C381.454 565.953 370.582 559.839 359 557.001C357.314 556.639 357.111 556.728 357 555.001C356.738 538.872 337.383 536.249 325 541.001C323.825 532.033 324.442 523.902 324 515.001C330.178 515.483 336.016 517.12 342 514.001C343.189 513.479 343.406 514.051 344 515.001C350.399 525.107 357.607 534.375 368 541.001C398.308 558.294 407.386 532.138 404 507.001C410.565 513.626 416.431 520.704 425 525.001C439.359 531.238 456.553 523.143 456 507.001C452.821 461.17 427.591 415.818 404 377.001V378.001Z" fill="#161A16"/>
<path d="M147 234.999C120.713 261.082 88.7073 226.861 87.9998 198.999C85.059 178.493 87.3251 158.076 91.9998 137.999C92.3466 136.621 93.4878 135.701 94.9998 136.999C109.732 148.181 128.661 150.711 147 148.999C142.408 167.217 141.033 186.46 145 204.999C145.929 215.097 153.963 225.395 147 234.999Z" fill="#E9FA9C"/>
<path d="M132.999 348C119.628 374.594 119.931 413.632 96.9994 434C54.9048 453.729 57.0175 380.375 58.9994 357C61.5675 334.583 67.6417 309.856 83.9994 293C85.4649 324.596 106.983 337.024 132.999 348Z" fill="#E9FA9C"/>
<path d="M311 366.999C305.26 368.684 270.004 367.878 271 361.999C273.6 359.225 276.424 354.861 275 350.999C274.433 349.712 274.253 349.22 275 347.999C277.268 344.349 276.568 339.547 273 336.999C271.133 334.544 265.83 335.613 265 332.999C260.491 322.753 244.501 324.393 235 325.999C235.539 323.57 233.386 319.968 236 318.999C253.717 313.823 264.515 296.283 255 279.999C273.713 262.52 302.128 257.13 326 267.999C327.175 268.304 327.097 268.592 327 269.999C327.747 284.85 344.31 292.254 352 303.999C368.693 331.392 340.625 364.252 311 366.999Z" fill="#E9FA9C"/>
<path d="M165.999 482C161.846 505.589 168.801 542.399 141.999 554C151.732 536.639 150.486 515.882 137.999 500C137.003 498.613 138.916 475.694 138.999 474C140.896 439.73 117.727 441.224 93.9995 470C87.4238 420.462 102.615 460.152 120.999 400C122.702 397.8 121.94 390.76 124.999 391C133.693 393.427 143.015 394.56 151.999 395C155.017 395.68 151.446 403.2 151.999 406C150.961 415.428 154.373 424.733 153.999 434C156.214 444.134 156.442 455.026 159.999 465C160.913 470.961 166.373 475.933 165.999 482Z" fill="#E9FA9C"/>
<path d="M298 189.999C295.171 190.24 294.721 190.427 294 192.999C287.76 217.232 263.82 234.481 238 233.999C209.892 235.231 183.796 215.55 178 188.999C177.376 184.377 168.505 191.198 163 179.999C159.811 173.823 160.198 157.658 171 161.999C172.026 162.575 172.78 163.776 174 162.999C245.013 151.84 251.154 130.927 252 131.999C269.694 152.736 264.385 150.259 297 162.999C298.844 164.137 299.294 163.311 301 161.999C316.184 153.117 319.161 187.48 298 189.999Z" fill="white"/>
<path d="M347 749C345.83 751.519 344.024 751.943 342 750C339.26 747.923 334.276 741.967 331 746C330.298 747.192 330.788 748.035 332 749C333.969 750.661 336.472 751.883 338 754C339.239 755.795 338.175 757.491 336 758C331.36 758.723 329.474 752.911 325 752C322.673 750.7 318.609 752.615 320 755C322.437 757.572 333.293 762.379 324 764C304.23 762.379 287.402 748.36 270 740C255.062 732.055 266.45 708.813 264 695C275.151 696.675 286.014 696.849 297 695C298.721 702.958 297.387 712.802 305 718C311.292 724.578 350.552 742.073 347 749Z" fill="white"/>
<path d="M205 744C194.758 752.244 184.076 761.287 171 765C160.965 767.088 169.3 761.158 171 758C171.484 756.018 170.046 754.485 168 755C162.277 756.268 160.883 765.66 154 762C153.309 757.6 166.303 754.373 160 750C153.573 748.824 150.916 759.04 145 759C139.112 756.146 150.696 753.303 151 750C149.894 742.377 141.889 751.097 139 753C131.798 752.419 145.747 742.519 148 741C157.164 733.905 166.338 725.367 173 716C177.478 709.539 176.005 701.253 177 694C188.32 695.295 198.776 695.291 210 695C208.134 710.353 218.352 733.007 205 744Z" fill="white"/>
<path d="M276.999 437C258.248 441.552 238.266 442.808 219.999 436C216.927 434.804 213.041 433.737 212.999 430C212.501 427.078 224.453 431.516 226.999 431C230.044 431.041 236.432 433.444 236.999 429C237.138 427.233 236.02 426.326 233.999 426C226.872 424.22 207.269 425.708 208.999 415C209.387 414.212 210.363 414.851 210.999 415C217.31 416.658 223.467 417.231 229.999 417C231.48 416.932 231.819 415.576 231.999 414C231.93 408.184 219.178 412.297 214.999 410C212.287 409.171 210.612 405.745 210.999 403C212.259 400.839 215.813 402.109 217.999 402C230.772 403.685 244.364 403.446 256.999 401C260.182 401.258 259.574 406.649 260.999 409C264.708 419.029 268.848 429.716 276.999 437Z" fill="white"/>
<path d="M247.999 360.999C252.862 361.135 276.113 346.562 267.999 359.999C232.487 392.285 207.833 386.962 207.999 385.999C197.009 378.27 179.84 344.935 199.999 339.999C214.074 338.575 250.482 325.433 259.999 336.999C255.345 339.833 239.554 339.667 240.999 345.999C242.819 350.298 259.234 342.026 263.999 341.999C268.598 339.925 275.377 346.711 267.999 347.999C264.276 348.935 237.218 356.687 247.999 360.999Z" fill="white"/>
<path d="M286 245C270.292 260.232 245.382 265.667 224 262C221.938 261.461 219.605 260.941 218 259C214.291 253.985 208.719 250.855 204 247C208.443 243.967 209.948 239.082 211 234C225.919 239.041 242.818 240.731 258 236C260.92 235.987 264.786 232.425 267 235C271.152 242.374 278.554 242.978 286 245Z" fill="white"/>
<path d="M153 342.999C96.0007 344.88 63.0491 282.302 115 248.999C128.291 249.186 145.102 250.43 153 236.999C154.231 235.599 153.372 232.412 156 232.999C165.114 234.159 174.434 236.944 182 241.999C182.774 242.506 182.691 244.359 182 244.999C175.443 251.521 175.178 267.157 178 275.999C182.19 289.27 190.556 298.533 204 297.999C209.062 297.572 211.557 292.932 212 294.999C215.181 325.088 179.362 343.839 153 342.999Z" fill="#E9FA9C"/>
<path d="M375 285C377.838 249.108 369.957 245.763 355 254C347 219.054 342.336 183.305 333 147C338.468 146.627 343.894 146.599 349 144C350.113 143.493 350.555 143.987 351 145C356.538 157.141 360.549 170.178 364 183C369.51 209.815 387.007 260.943 375 285Z" fill="#E9FA9C"/>
<path d="M136.999 142.999C107.35 145.4 76.8587 120.63 81.9995 90.9995C87.7516 86.0388 90.7903 79.1204 92.9995 71.9995C95.7505 62.5048 98.7227 52.7475 95.9995 42.9995C95.3882 41.4126 95.3183 39.3863 96.9995 37.9995C113.992 23.3974 137.755 19.0257 159.999 21.9995C160.986 22.1061 160.861 22.1727 160.999 22.9995C164.668 42.0154 182.7 59.5327 202.999 59.9995C205.167 60.0128 205.694 59.8792 205.999 61.9995C220.422 105.005 181.141 143.4 136.999 142.999Z" fill="#E9FA9C"/>
<path d="M343 140.999C319.593 143.572 304.41 116.204 290 101.999C273.182 79.3662 243.113 66.4315 215 75.9994C214.363 70.1568 212.08 64.3997 211 58.9994C223.665 55.0463 228.339 40.9391 226 28.9994C226.028 27.9274 224.034 24.7582 226 24.9994C260.564 28.1217 293.23 44.0412 320 64.9994C339.185 80.0078 382.602 126.205 343 140.999Z" fill="#E9FA9C"/>
<path d="M78.9996 576C61.2746 574.108 39.5377 557.441 42.9996 539C56.0995 529.404 58.0866 508.032 49.9996 495C49.3211 494.155 49.3072 493.792 49.9996 493C59.2775 482.263 72.515 477.148 86.9996 477C88.5228 477.027 92.9749 476.732 93.9996 479C99.9679 489.428 110.841 496.376 123 498C125.88 498.698 128.282 498.168 130 501C162.154 536.379 121.83 584.442 78.9996 576Z" fill="#E9FA9C"/>
<path d="M213 570C211.041 577.316 204.318 586.082 200 590C177.694 607.867 143.072 607.629 117 598C112.42 597.265 113.165 603.358 117 604C170.261 621.279 155.862 587.532 156 659C154.91 685.761 154.927 720.814 126 734C123.807 735.993 107.387 742.872 101 741C77.3562 734.033 89.2619 714.936 91 714C98.0766 708.209 104.324 708.69 109 701C111.276 687.734 111.82 674.28 114 661C114.124 659.81 114.104 659.709 113 659C107.358 655.363 102.849 650.376 99 645C85.8262 626.879 81.3932 603.799 80 582C101.726 584.849 124.102 576.105 137 559C138.407 557.088 139.834 556.89 142 558C173.548 571.708 183.792 549.748 190 545C190.607 544.452 191.186 543.268 192 543C195.656 541.074 199.724 541.78 204 544C208.594 546.381 210.496 550.4 212 555C213.504 559.601 215.138 565.306 213 570Z" fill="#E9FA9C"/>
<path d="M367.999 722C361.4 725.623 364.218 736.148 351.999 738C346.946 738.926 348.611 739.858 343.999 737C339.512 734.209 334.569 731.684 329.999 729C322.737 724.813 330.254 711.047 337.999 712C341.147 711.919 346.812 715.254 347.999 711C348.317 709.551 347.698 708.577 345.999 708C334.554 703.075 321.875 709.278 321.999 722C308.124 715.706 301.262 710.58 300.999 695C300.489 692.222 303.743 694.503 304.999 695C322.189 702.756 346.992 705.003 361.999 692C366.128 679.198 331.952 713.093 295.999 682C294.177 680.873 289.242 674.053 287.999 670C287.848 669.691 288.11 669.322 287.999 669C287.295 666.893 286.42 665.161 286.999 663C287.883 659.685 291.631 657.443 294.999 657C297.278 656.705 312.035 661.651 317.999 662C326.449 663.946 335.688 660.846 343.999 662C361.451 666.603 382.037 661.681 392.999 647C406.35 671.652 397.394 712.123 367.999 722Z" fill="#E9FA9C"/>
<path d="M398.999 622C397.04 641.782 380.208 658.993 358.999 658C310.578 656.967 294.799 612.612 323.999 578C324.472 577.235 325.11 577.014 325.999 577C333.963 576.866 340.273 573.597 346.999 570C349.598 568.618 352.165 566.228 353.999 564C359.086 560.149 366.579 567.417 371.999 569C377.878 572.449 386.332 577.76 387.999 584C384.72 592.925 388.997 602.505 391.999 611C393.431 613.738 394.054 616.585 395.999 619C396.708 620.262 399.861 619.947 398.999 622Z" fill="#E9FA9C"/>
<path d="M399.999 372C383.118 371.973 370.621 357.978 358.999 348C357.562 346.783 358.204 346.645 358.999 345C364.036 334.367 364.608 322.355 361.999 311C361.776 309.409 360.753 309.589 362.999 309C365.65 308.211 368.451 307.354 369.999 305C373.027 301.67 382.846 311.914 385.999 314C400.272 324.673 437.222 370.315 399.999 372Z" fill="#E9FA9C"/>
<path d="M425 518.999C415.812 511.988 409.13 502.548 403 492.999C401.934 491.159 400.743 490.569 399 490.999C395.845 492.02 397.889 498.34 398 500.999C399.979 515.034 404.261 545.988 381 541.999C366.346 537.876 357.901 523.738 350 511.999C349.557 511.287 349.571 510.832 350 509.999C352.795 504.667 352.647 499.586 351 493.999C347.319 480.568 324.065 445.009 323 428.999C322.931 427.965 327.1 426.55 328 425.999C346.93 414.099 366.633 400.956 380 382.999C382.269 381.065 383.305 373.333 387 374.999C389.726 376.638 393.025 376.542 396 376.999C404.095 379.819 405.7 390.915 411 396.999C429.349 430.066 447.254 466.365 452 503.999C454.297 519.767 437.675 528.562 425 518.999Z" fill="#E9FA9C"/>
<path d="M346 499.999C337.097 532.557 290.198 479.639 282 466.999C280.619 464.458 265.845 444.814 270 444.999C274.554 444.854 279.845 441.596 284 442.999C285.062 444.243 286.55 444.264 288 443.999C324.285 435.9 311.897 420.335 322 452.999C327.465 466.737 344.495 484.66 346 499.999Z" fill="#E9FA9C"/>
<path d="M300 375.999C278.048 393.123 270.943 400.75 243 398.999C240.97 398.894 232.539 385.789 235 384.999C244.537 382.828 258.689 375.251 264 370.999C265.154 370.065 265.86 369.525 267 369.999C277.454 374.553 288.558 376.236 300 375.999Z" fill="#E9FA9C"/>
<path d="M193 491C158.985 493.585 155.715 417.567 159 395C204.65 399.037 196.689 384.148 199 416C201.728 425.592 202.049 435.315 205 445C208.966 460.24 212.415 484.166 193 491Z" fill="#E9FA9C"/>
<path d="M404 378.001C446.235 364.214 393.518 308.298 372 297.001C391.21 278.998 381.529 249.595 379 227.001C373.016 200.311 367.697 172.633 357 147.001C349.371 134.941 366.851 136.782 362 114.001C350.598 65.8278 282.224 27.9248 235 20.0008C231.213 19.4253 226.842 18.8938 223 19.0008C222.199 19.0276 221.332 19.0047 221 18.0008C212.763 1.09543 189.612 -4.94042 173 4.00083C168.495 6.24953 164.654 9.85145 162 14.0008C160.812 15.8614 160.004 16.2953 158 16.0008C138.721 13.4577 118.474 15.5069 102 26.0008C98.3377 27.4732 92.317 34.1386 89.0001 33.0008C73.3001 24.354 48.3041 35.3899 48.0001 52.0008C47.9863 52.7772 48.0415 74.0134 62.0001 88.0008C68.2884 94.3052 73.0416 93.0103 73.0001 94.0008C72.9863 95.0047 72.9586 97.9969 73.0001 99.0008C73.0692 99.4292 73.0139 99.5591 73.0001 100.001C73.8155 110.829 78.4403 120.823 86.0001 129.001C83.2084 148.931 79.2173 171.053 81.0001 192.001C83.1837 204.596 84.007 217.811 91.0001 229.001C92.0504 232.28 76.9922 227.474 67.0001 250.001C60.8777 263.788 71.7848 269.707 90.0001 263.001C90.6358 262.773 90.2765 263.559 90.0001 264.001C85.8816 270.064 84.4878 277.442 82.0001 284.001C66.1205 299.006 57.5796 320.053 54.0001 341.001C48.4996 367.142 44.1421 442.224 84.0001 443.001C87.4414 441.569 84.0189 459.056 85.0001 462.001C84.4196 464.464 87.3308 470.586 84.0001 471.001C70.0691 471.483 56.1077 476.333 47.0001 487.001C42.8678 492.663 -40.785 509.844 25.0001 540.001C43.2154 548.353 30.0178 537.719 42.0001 559.001C48.4957 569.321 59.0178 577.003 71.0001 580.001C74.8283 582.236 72.3693 589.199 74.0001 593.001C77.7592 617.803 85.0622 645.47 106 662.001C107.133 662.857 108.221 663.729 108 665.001C106.134 676.512 104.571 688.597 102 700.001C98.8076 704.953 91.6576 707.199 87.0001 711.001C79.5924 717.747 79.0287 720.566 82.0001 733.001C83.5618 739.56 90.1264 742.685 96.0001 745.001C110.249 750.596 123.736 742.8 135 736.001C150.465 726.31 156.816 708.027 159 691.001C159.539 687.333 167.333 693.228 170 693.001C175.266 709.612 163.535 720.587 151 731.001C144.104 737.426 121.889 749.538 136 759.001C137.907 759.643 138.157 760.381 139 762.001C140.88 767.556 147.78 763.561 151 767.001C153.681 770.521 158.932 767.391 162 770.001C176.111 777.229 201.538 754.344 212 745.001C222.918 730.518 214.789 710.692 217 694.001C217 693.024 217.074 693.215 218 693.001C221.524 692.251 225.779 691.19 226 687.001C227.437 667.191 228.977 646.851 230 627.001C232.695 583.004 233.545 537.543 237 494.001C239.488 542.616 241.609 592.333 244 641.001C244.511 650.959 244.655 661.029 245 671.001C245.691 679.795 242.465 692.689 255 694.001C260.957 708.202 248.267 727.95 260 741.001C272.134 748.751 319.206 780.39 330 766.001C333.317 762.896 339.093 765.154 341 760.001C345.879 754.941 350.848 756.437 351 747.001C350.281 742.557 364.439 744.845 369 730.001C371.916 725.329 379.172 725.338 383 721.001C400.331 706.933 406.317 683.23 403 662.001C402.724 652.404 393.071 644.063 399 635.001C405.15 617.346 398.493 625.194 411 620.001C423.01 610.35 421.729 588.514 409 580.001C401.413 573.201 393.201 581.76 389 575.001C381.454 565.953 370.582 559.839 359 557.001C357.314 556.639 357.111 556.728 357 555.001C356.738 538.872 337.383 536.249 325 541.001C323.825 532.033 324.442 523.902 324 515.001C330.178 515.483 336.016 517.12 342 514.001C343.189 513.479 343.406 514.051 344 515.001C350.399 525.107 357.607 534.375 368 541.001C398.308 558.294 407.386 532.138 404 507.001C410.565 513.626 416.431 520.704 425 525.001C439.359 531.238 456.553 523.143 456 507.001C452.821 461.17 427.591 415.818 404 377.001V378.001ZM384 313.001C398.138 323.696 434.873 370.314 398 372.001C381.277 371.974 368.512 356.986 357 347.001C355.577 345.783 356.212 345.661 357 344.001C361.975 333.36 362.585 321.365 360 310.001C359.765 308.408 359.761 308.59 362 308.001C364.626 307.211 367.466 306.357 369 304.001C372.013 300.655 380.891 310.926 384 313.001ZM92.0001 470.001C85.4354 420.275 101.633 460.381 120 400.001C121.7 397.792 120.946 390.76 124 391.001C132.679 393.45 142.031 393.559 151 394.001C154.013 394.683 150.433 403.19 151 406.001C149.95 415.477 153.387 424.698 153 434.001C155.225 444.174 155.448 454.975 159 465.001C159.926 470.984 165.387 475.911 165 482.001C160.854 505.679 167.77 542.356 141 554.001C150.716 536.573 149.466 515.943 137 500.001C136.005 498.609 137.903 475.701 138 474.001C139.88 439.601 115.688 441.116 92.0001 470.001ZM159 394.001C204.331 398.057 195.692 382.984 198 415.001C200.695 424.638 201.07 435.27 204 445.001C207.939 460.313 211.28 483.134 192 490.001C158.223 492.598 155.738 416.689 159 394.001ZM200 339.001C214 337.595 249.533 324.583 259 336.001C254.37 338.798 238.563 338.763 240 345.001C241.811 349.244 258.26 341.028 263 341.001C267.561 338.953 274.353 345.716 267 347.001C263.31 347.924 236.289 355.744 247 360.001C251.837 360.135 275.071 345.736 267 359.001C231.675 390.871 172.317 392.47 127 385.001C126.005 385.041 124.82 384.938 125 384.001C127.792 372.597 131.992 361.044 136 350.001C136.484 347.658 136.692 346.917 139 348.001M351 306.001C367.681 333.628 339.617 366.23 310 369.001C304.265 370.701 269.005 369.93 270 364.001C272.598 361.203 275.41 356.896 274 353.001C273.433 351.702 274.24 350.232 275 349.001C277.267 345.32 275.58 340.571 272 338.001C270.134 335.525 265.829 336.638 265 334.001C260.495 323.654 244.509 325.395 235 327.001C235.539 324.565 233.374 320.978 236 320.001C253.69 314.781 264.509 296.424 255 280.001C273.699 262.373 301.146 257.038 325 268.001C326.175 268.322 326.097 268.582 326 270.001C326.746 284.965 343.33 294.155 351 306.001ZM296 189.001C293.181 189.242 293.733 189.418 293 192.001C286.781 216.201 262.734 233.496 237 233.001C208.986 234.246 182.791 214.53 177 188.001C176.378 183.396 167.487 190.177 162 179.001C158.821 172.83 159.234 156.664 170 161.001C171.023 161.59 171.798 162.777 173 162.001C243.788 150.864 250.143 129.93 251 131.001C268.621 151.721 263.481 149.272 296 162.001C297.838 163.139 298.3 162.313 300 161.001C315.133 152.127 317.09 186.498 296 189.001ZM210 234.001C224.898 239.007 240.839 240.699 256 236.001C258.93 235.987 262.789 232.458 265 235.001C269.146 242.336 277.565 242.98 285 245.001C269.328 260.126 243.353 264.655 222 261.001C219.941 260.465 218.603 259.928 217 258.001C213.296 253.022 207.713 250.829 203 247.001C207.45 243.989 208.95 239.047 210 234.001ZM218 389.001C227.467 386.779 236.127 383.99 245 380.001C251.275 377.177 257.721 374.324 263 370.001C264.161 369.05 264.867 369.532 266 370.001C276.393 374.619 287.626 375.242 299 375.001C277.191 392.415 247.779 398.781 220 397.001C217.982 396.894 218.511 396.848 218 395.001C217.903 393.261 215.554 389.804 218 389.001ZM265 399.001C280.866 395.039 295.741 386.414 308 376.001C323.852 371.329 339.123 367.56 350 354.001C352.336 351.364 351.891 351.096 355 354.001C360.514 359.141 366.712 363.718 373 368.001C374.562 369.687 379.018 371.163 377 374.001C373.849 379.02 371.119 383.651 367 388.001C344.943 410.474 316.723 429.046 286 438.001C278.827 435.284 259.527 403.86 265 399.001ZM363 183.001C368.473 209.932 384.927 260.841 373 285.001C375.819 248.955 367.857 245.715 353 254.001C345.053 218.892 341.274 183.462 332 147.001C337.432 146.613 342.928 146.611 348 144.001C349.106 143.506 349.558 143.997 350 145.001C355.501 157.195 359.573 170.138 363 183.001ZM224 29.0008C224.042 27.93 223.038 24.7465 225 25.0008C259.51 28.1196 291.258 44.0665 318 65.0008C337.141 79.9788 380.526 125.224 341 140.001C317.63 142.571 302.387 116.189 288 102.001C271.208 79.3934 241.069 66.4439 213 76.0008C212.364 70.1783 210.078 64.395 209 59.0008C221.646 55.0522 226.336 40.927 224 29.0008ZM80.0001 90.0008C85.7217 85.0216 89.8027 79.1485 92.0001 72.0008C94.7365 62.4706 96.7089 52.772 94.0001 43.0008C93.392 41.408 94.3278 39.3929 96.0001 38.0008C112.902 23.3307 135.874 18.0293 158 21.0008C158.981 21.1079 158.876 22.1576 159 23.0008C162.662 42.088 181.795 58.5324 202 59.0008C204.156 59.0142 203.696 59.8726 204 62.0008C218.346 105.168 178.921 143.389 135 143.001C105.521 145.41 74.9004 119.729 80.0001 90.0008ZM88.0001 199.001C85.0702 178.481 87.3564 157.092 92.0001 137.001C92.3456 135.636 92.4937 134.689 94.0001 136.001C108.677 147.177 127.73 149.714 146 148.001C141.426 166.231 141.047 185.462 145 204.001C145.926 214.107 152.938 224.404 146 234.001C119.81 260.102 88.7188 226.882 88.0001 199.001ZM114 249.001C127.281 249.188 144.095 249.48 152 236.001C153.216 234.595 152.388 232.412 155 233.001C164.108 234.165 173.427 236.928 181 242.001C181.774 242.523 181.677 244.358 181 245.001C174.449 251.546 175.167 267.113 178 276.001C182.188 289.319 189.567 298.55 203 298.001C208.058 297.573 210.558 292.926 211 295.001C214.179 325.211 178.328 343.844 152 343.001C95.0462 344.888 62.0907 282.423 114 249.001ZM57.0001 356.001C59.5431 333.46 65.7888 309.973 82.0001 293.001C83.4512 324.79 105.225 335.958 131 347.001C117.746 373.758 117.707 413.508 95.0001 434.001C53.304 453.851 55.0376 379.518 57.0001 356.001ZM43.0001 539.001C56.0742 529.43 58.0574 507.998 50.0001 495.001C49.3091 494.158 49.3091 492.791 50.0001 492.001C59.2598 481.293 72.544 477.148 87.0001 477.001C88.5203 477.028 91.9774 475.725 93.0001 478.001C98.9567 488.388 109.866 496.368 122 498.001C124.875 498.697 128.286 498.177 130 501.001C162.091 536.284 121.747 584.407 79.0001 576.001C61.31 574.1 39.5588 557.392 43.0001 539.001ZM205 744.001C194.745 752.353 184.074 761.24 171 765.001C160.966 767.116 169.286 762.2 171 759.001C171.484 756.993 170.059 754.479 168 755.001C162.278 756.299 160.883 766.722 154 763.001C153.309 758.544 166.302 755.431 160 751.001C153.574 749.81 150.915 760.041 145 760.001C139.113 757.11 150.696 753.361 151 750.001C149.894 742.291 141.889 752.073 139 754.001C131.8 753.398 145.747 742.554 148 741.001C157.163 733.813 166.339 726.491 173 717.001C177.478 710.456 176.019 701.349 177 694.001C188.319 695.299 198.778 695.295 210 695.001C208.134 710.554 218.337 732.864 205 744.001ZM213 570.001C211.038 577.323 203.34 586.066 199 590.001C176.666 607.883 143.121 608.638 117 599.001C112.412 598.265 113.158 604.358 117 605.001C170.361 622.294 154.862 588.484 155 660.001C153.908 686.784 153.981 720.803 125 734.001C122.803 735.995 106.399 742.875 100 741.001C76.3119 734.041 88.2587 715.924 90.0001 715.001C97.1038 709.205 103.315 709.697 108 702.001C110.28 688.723 111.803 675.292 114 662.001C114.138 660.81 113.092 660.697 112 660.001C106.334 656.36 101.87 651.382 98.0001 646.001C84.8016 627.864 80.396 603.805 79.0001 582.001C100.767 584.852 124.078 576.12 137 559.001C138.424 557.087 138.83 556.89 141 558.001C172.607 571.707 183.795 549.753 190 545.001C190.608 544.452 191.199 543.269 192 543.001C195.662 541.073 198.73 541.779 203 544.001C207.602 546.383 209.494 550.396 211 555.001C212.507 559.592 215.142 565.316 213 570.001ZM220 436.001C216.932 434.823 213.042 432.668 213 429.001C212.503 426.123 223.457 431.509 226 431.001C229.041 431.041 235.433 433.364 236 429.001C236.138 427.274 235.018 426.309 233 426.001C225.883 424.234 207.259 425.535 209 415.001C209.387 414.224 209.364 413.854 210 414.001C216.302 415.634 223.477 417.215 230 417.001C231.479 416.934 231.82 415.553 232 414.001C231.917 408.259 219.16 411.263 215 409.001C212.291 408.184 210.627 405.718 211 403.001C212.244 400.886 215.803 402.095 218 402.001C230.756 403.661 243.382 403.41 256 401.001C259.179 401.255 258.577 406.685 260 409.001C263.704 418.866 267.874 429.84 276 437.001C257.287 441.485 238.229 442.707 220 436.001ZM345 749.001C343.825 751.531 342.032 751.942 340 750.001C337.25 747.926 332.289 741.972 329 746.001C328.295 747.206 328.784 748.051 330 749.001C331.976 750.661 334.466 751.886 336 754.001C337.258 755.794 336.184 757.492 334 758.001C329.343 758.737 327.492 752.924 323 752.001C320.664 750.703 316.604 753.605 318 756.001C320.432 758.571 331.315 762.381 322 764.001C302.154 762.381 285.469 748.353 268 740.001C253.019 732.05 264.446 708.801 262 695.001C273.195 696.674 283.971 697.835 295 696.001C296.728 703.938 295.357 712.821 303 718.001C309.316 724.573 348.566 742.081 345 749.001ZM367 722.001C360.394 725.615 363.217 736.154 351 738.001C345.942 738.911 347.616 739.839 343 737.001C338.495 734.217 334.575 731.678 330 729.001C322.731 724.825 329.247 711.051 337 712.001C340.151 711.921 346.825 715.244 348 711.001C348.318 709.542 347.7 708.59 346 708.001C334.543 703.089 320.876 709.312 321 722.001C307.124 715.723 301.263 710.541 301 695.001C300.489 692.217 303.742 694.506 305 695.001C322.206 702.737 346.977 705.971 362 693.001C366.132 680.231 330.988 713.014 295 682.001C293.176 680.877 289.244 675.057 288 671.001C287.848 670.693 287.111 670.322 287 670.001C286.295 667.913 286.42 665.142 287 663.001C287.898 659.695 290.614 657.443 294 657.001C296.28 656.706 312.03 662.653 318 663.001C326.458 664.942 334.68 660.863 343 662.001C360.469 666.592 381.027 661.644 392 647.001C405.364 671.576 396.424 712.136 367 722.001ZM345 569.001C347.585 567.622 349.176 565.223 351 563.001C356.045 559.159 364.624 566.421 370 568.001C375.86 571.441 384.342 576.777 386 583.001C382.738 591.902 386.015 602.515 389 611.001C390.41 613.731 392.051 616.592 394 619.001C394.691 620.259 397.843 619.953 397 622.001C395.065 641.731 377.09 659.005 356 658.001C307.864 656.97 292.963 611.521 322 577.001C322.47 576.238 322.116 576.014 323 576.001C330.919 575.867 338.311 572.575 345 569.001ZM280 467.001C278.618 464.431 263.826 443.813 268 444.001C272.575 443.854 277.854 441.582 282 443.001C283.078 444.259 284.535 444.269 286 444.001C322.32 435.809 309.884 418.966 320 452.001C325.473 465.881 343.507 484.501 345 500.001C336.1 532.928 288.223 479.797 280 467.001ZM423 518.001C413.823 511.014 407.123 501.518 401 492.001C399.95 490.167 399.741 489.573 398 490.001C394.849 491.018 396.89 497.364 397 500.001C398.976 513.988 403.232 544.99 380 541.001C365.378 536.892 356.892 522.699 349 511.001C348.558 510.291 347.558 509.831 348 509.001C350.792 503.687 350.645 498.569 349 493.001C345.324 479.629 323.064 444.943 322 429.001C321.931 427.957 326.102 426.55 327 426.001C345.906 414.142 364.65 400.897 378 383.001C380.253 381.073 381.324 373.341 385 375.001C387.723 376.634 391.029 377.546 394 378.001C402.085 380.812 403.707 390.937 409 397.001C427.326 429.955 445.246 465.496 450 503.001C452.294 518.715 435.66 527.531 423 518.001Z" fill="#161A16"/>
<path d="M235 196.001C235.471 199.393 235.389 199.806 239 202.001C240.97 203.158 239.456 206.185 237 206.001C233.731 206.041 229.214 202.012 229 199.001C228.672 196.99 229.516 193.277 231 193.001C232.67 192.699 234.758 194.226 235 196.001Z" fill="#131715"/>
<path d="M210 192C206.629 192.555 203.918 188.057 204 185C204.095 181.362 207.289 179 211 179C214.724 179 216.918 181.307 217 185C217.068 188.124 213.656 192.582 210 192Z" fill="#0B0D0B"/>
<path d="M261 178C271.6 177.677 269.464 194.799 260 192C253.176 189.968 253.369 177.637 261 178Z" fill="#0B0D0B"/>
<path d="M234 221C231.034 220.826 221.125 218.941 223 213C226.413 209.4 232.453 223.726 245 213C252.161 209.097 249.386 221.289 234 221Z" fill="#131715"/>
<path d="M361.001 621.002C358.582 613.816 371.81 606.274 375.001 615.002C377.477 622.57 364.235 629.997 361.001 621.002Z" fill="#0B0D0B"/>
<path d="M156 120.001C147.746 126.342 144.605 123.592 143 112.001C154.833 108.676 152 99.0013 152 99.0013C151.383 95.3397 147.73 92.3955 144 93.0013L132 95.0013C128.271 95.607 125.383 99.3397 126 103.001C126 103.001 128.072 113.997 139 113.001C140.166 122.909 142.642 128.457 130 124.001C128.547 123.49 127.203 124.82 130 127.001C133.209 129.492 139.6 129.865 143 126.001C147.594 127.401 153.53 127.749 158 122.001C159.029 120.682 157.33 118.978 156 120.001Z" fill="#030404"/>
<path d="M107 94.0011C102.582 86.9771 112.391 75.5483 118 84.0011C122.604 91.4124 112.728 102.734 107 94.0011Z" fill="#0B0D0B"/>
<path d="M154 88.0011C149.582 80.9771 159.391 69.5483 165 78.0011C169.604 85.4124 159.728 96.7344 154 88.0011Z" fill="#0B0D0B"/>
<path d="M112 287C110.675 278.897 124.131 272.147 126 282C127.338 290.525 113.882 297.156 112 287Z" fill="#0B0D0B"/>
<path d="M155 303C153.675 294.897 167.131 288.147 169 298C170.338 306.525 156.882 313.156 155 303Z" fill="#0B0D0B"/>
<path d="M325 346.001C317.406 352.318 313.473 350.037 311 340.001C322.351 336.018 319 327.001 319 327.001C318.108 323.835 314.622 322.117 311 323.001L299 326.001C295.379 326.871 293.095 329.835 294 333.001C294 333.001 297.366 342.873 308 341.001C309.919 349.6 312.743 354.77 300 352.001C298.527 351.684 297.095 353.339 300 355.001C303.338 356.9 309.973 356.707 313 353.001C317.621 353.805 323.068 353.448 327 348.001C327.906 346.748 326.23 344.985 325 346.001Z" fill="#030404"/>
<path d="M278 315C274.244 315.722 271.982 321.86 273 326C274.197 330.927 274.914 319.8 279 319C283.086 318.2 289.018 328.043 288 323C287.133 318.731 282.058 314.213 278 315Z" fill="#0B0D0B"/>
<path d="M322 306C318.244 306.722 315.982 312.86 317 317C318.197 321.927 318.914 310.8 323 310C327.086 309.2 333.018 319.043 332 314C331.133 309.731 326.058 305.213 322 306Z" fill="#0B0D0B"/>
<path d="M120 548.001C113.258 554.424 110.498 553.227 107 545.001C117.651 540.06 112 533.001 112 533.001C110.782 530.424 107.442 529.772 104 531.001L91.9998 534.001C88.5581 535.243 86.7818 538.424 87.9998 541.001C87.9998 541.001 92.8163 549.032 103 546.001C105.804 553.079 108.747 556.629 95.9998 556.001C94.5268 555.934 92.9689 557.973 95.9998 559.001C99.4699 560.176 106.436 558.567 109 555.001C113.589 555.068 118.742 554.183 122 549.001C122.751 547.812 121.09 546.973 120 548.001Z" fill="#030404"/>
<path d="M72.9999 541.001C65.8546 537.044 69.1499 524.355 77.9999 529.001C85.4862 533.204 82.0915 545.829 72.9999 541.001Z" fill="#0B0D0B"/>
<path d="M111.001 525C103.834 521.235 107.125 508.607 116.001 513C123.501 517.006 120.112 529.567 111.001 525Z" fill="#0B0D0B"/>
<path d="M323 627C327.947 633.576 330.836 632.889 335 626C326.462 620.239 332 615 332 615C333.412 612.853 336.206 612.465 339 614L348 619C350.809 620.535 351.398 622.853 350 625C350 625 346.384 631.995 338 628C334.605 633.951 330.891 636.954 342 638C343.286 638.122 344.767 639.47 342 640C338.842 640.598 332.719 638.519 331 635C327.018 634.47 323.11 633.041 321 628C320.511 626.845 322.204 625.954 323 627Z" fill="#030404"/>
<path d="M325 601.001C323.079 593.547 335.426 586.941 338 596.001C339.961 603.847 327.601 610.335 325 601.001Z" fill="#0B0D0B"/>
<path d="M141 325.001C130.371 326.337 129.296 322.501 134 312.001C146.201 314.934 150 305.001 150 305.001C151.39 301.624 149.622 298.298 146 297.001L133 292.001C129.377 290.705 125.39 292.624 124 296.001C124 296.001 119.834 306.576 130 311.001C125.801 319.878 124.817 326.86 116 317.001C114.989 315.862 112.68 315.82 114 319.001C115.516 322.641 121.959 325.612 127 324.001C130.327 327.392 134.021 330.672 141 328.001C142.6 327.386 142.713 324.779 141 325.001Z" fill="#030404"/>
</g>
<defs>
<clipPath id="clip0_1615_830">
<rect width="456" height="770" fill="white"/>
</clipPath>
</defs>
</svg>
