<svg width="252" height="154" viewBox="0 0 252 154" fill="none" xmlns="http://www.w3.org/2000/svg">
<path d="M54.0007 10.9911C51.4046 16.7004 50.0007 48.6086 50.0007 57.951C48.4412 57.951 45.0392 64.8665 44.0007 66.9433C31.3247 92.2938 32.096 131.928 60.0007 145.876C70.3843 151.066 84.5777 153.869 96.0007 153.869C107.424 153.869 164.655 153.389 174.001 152.87C181.478 152.455 192.712 146.338 196.001 142.878C208.789 129.423 217.001 118.194 217.001 98.9159C217.52 93.2067 217.789 73.8851 210.001 61.9476C214.155 52.0861 215.443 39.8363 217.001 29.9749C218.558 20.1135 220.27 13.1839 213.001 7.99371C205.732 2.80349 195.155 10.4332 191.001 11.9903C186.847 13.5474 169.751 25.8227 163.001 29.9749C156.251 27.8988 139.751 28.9758 133.001 28.9758C126.251 28.9758 116.058 28.8591 101.001 31.9732C94.2507 22.6308 85.1546 13.145 81.0007 8.99286C76.8469 4.84068 71.7507 2.03774 65.0007 0.999692C58.2507 -0.0383528 56.5969 5.2819 54.0007 10.9911Z" fill="black"/>
<path d="M167.711 89.2318C167.329 89.3913 167.148 89.8305 167.308 90.2128C167.467 90.5951 167.907 90.7756 168.289 90.6161L168 89.9239L167.711 89.2318ZM168.092 89.8854L167.849 89.1758L167.826 89.1838L167.803 89.1933L168.092 89.8854ZM182.41 86.8436L182.386 87.5932L182.41 86.8436ZM189.07 87.7019L189.359 87.0097L189.07 87.7019ZM189.693 87.9619L189.982 87.2697L189.693 87.9619ZM190.316 88.2219L190.027 88.914L190.316 88.2219ZM192 88.9248L191.351 88.5493L192 88.9248ZM192 88.9248L192.649 89.3004L193.09 88.5377L192.267 88.224L192 88.9248ZM191.907 88.8892L192.173 88.1883L191.639 89.5901L191.907 88.8892ZM191.733 89.6257C192.12 89.7731 192.554 89.5787 192.701 89.1915C192.848 88.8044 192.654 88.3712 192.267 88.2238L192 88.9248L191.733 89.6257ZM167.983 95.169C167.569 95.1784 167.241 95.5218 167.25 95.9359C167.26 96.35 167.603 96.678 168.017 96.6686L168 95.9188L167.983 95.169ZM168.1 95.9165L168.116 95.1667L168.099 95.1664L168.083 95.1667L168.1 95.9165ZM170.929 95.9752L170.914 96.725L170.929 95.9752ZM182.284 97.1604L182.084 97.8832L182.284 97.1604ZM183.655 97.5401L183.455 98.2629L183.655 97.5401ZM185.025 97.9198L185.226 97.197L185.025 97.9198ZM189.926 100.394L189.347 100.871L189.926 100.394ZM190.368 100.929L190.946 100.452L190.368 100.929ZM190.81 101.464L190.231 101.942L190.81 101.464ZM192.003 102.912L191.862 102.176L192.003 102.912ZM192.002 102.912L191.457 103.427L191.739 103.726L192.143 103.649L192.002 102.912ZM191.933 102.839L192.478 102.324L191.377 103.342L191.933 102.839ZM191.444 103.416C191.722 103.723 192.197 103.747 192.504 103.469C192.811 103.191 192.834 102.716 192.556 102.409L192 102.913L191.444 103.416ZM166.019 106.16C165.605 106.149 165.261 106.477 165.25 106.891C165.24 107.305 165.567 107.649 165.981 107.659L166 106.909L166.019 106.16ZM166.1 106.912L166.141 106.163L166.13 106.162L166.119 106.162L166.1 106.912ZM179.344 108.585L179.108 109.297L179.344 108.585ZM180.607 109.005L180.844 108.294L180.607 109.005ZM181.87 109.425L181.633 110.137L181.87 109.425ZM185.916 112.147L186.613 111.87L185.916 112.147ZM186.15 112.734L185.453 113.011L186.15 112.734ZM186.384 113.32L187.08 113.043L186.384 113.32ZM187.01 114.905L186.834 115.634L187.01 114.905ZM187.008 114.904L186.363 115.287L186.524 115.56L186.832 115.634L187.008 114.904ZM186.954 114.814L187.599 114.431L186.288 115.16L186.954 114.814ZM186.334 115.248C186.525 115.616 186.978 115.759 187.346 115.568C187.713 115.377 187.857 114.924 187.666 114.557L187 114.903L186.334 115.248ZM81.6293 87.5785C81.9894 87.7832 82.4473 87.6573 82.652 87.2972C82.8567 86.9371 82.7308 86.4792 82.3707 86.2745L82 86.9265L81.6293 87.5785ZM81.9131 86.8771L82.2838 86.2251L82.2443 86.2027L82.2024 86.1851L81.9131 86.8771ZM55.9957 84.9173L55.2987 85.1944L55.9957 84.9173ZM55.9966 84.9196L55.2997 85.1967L55.5331 85.7837L56.1511 85.6535L55.9966 84.9196ZM56.0956 84.8988L56.3165 85.6155L55.941 84.1648L56.0956 84.8988ZM55.7791 84.2115C55.3833 84.3335 55.1613 84.7533 55.2833 85.1491C55.4053 85.5449 55.8251 85.7669 56.2209 85.6449L56 84.9282L55.7791 84.2115ZM81.8298 95.6501C82.2332 95.7441 82.6364 95.4933 82.7304 95.0899C82.8244 94.6865 82.5736 94.2832 82.1702 94.1892L82 94.9197L81.8298 95.6501ZM81.9026 94.897L82.0728 94.1665L82.0452 94.1601L82.0172 94.1558L81.9026 94.897ZM68.1958 94.5223L67.9566 93.8115L68.1958 94.5223ZM66.882 94.9645L67.1212 95.6753L66.882 94.9645ZM60.5552 97.8178L60.0754 97.2414L60.5552 97.8178ZM59.4745 98.7173L58.9947 98.1408L59.4745 98.7173ZM58.0086 99.9267L57.4119 100.381L58.0086 99.9267ZM58.0068 99.9243L57.4749 99.3955L57.0143 99.8588L57.4101 100.379L58.0068 99.9243ZM58.0779 99.8527L58.6098 100.382L57.608 99.2682L58.0779 99.8527ZM57.5301 99.3309C57.2072 99.5904 57.1559 100.062 57.4155 100.385C57.675 100.708 58.1471 100.759 58.4699 100.5L58 99.9154L57.5301 99.3309ZM82.9522 103.661C83.3656 103.688 83.7221 103.374 83.7485 102.961C83.7749 102.547 83.4612 102.191 83.0478 102.164L83 102.913L82.9522 103.661ZM82.9002 102.906L82.948 102.158L82.9106 102.156L82.8731 102.157L82.9002 102.906ZM80.1263 103.007L80.1533 103.756L80.1263 103.007ZM69.3542 105.162L69.7285 105.812L69.3542 105.162ZM66.9337 106.556L66.5593 105.906L66.9337 106.556ZM62.6919 110.071L62.0473 109.687L62.6919 110.071ZM62.3333 110.673L62.9779 111.057L62.3333 110.673ZM61.0033 112.905L60.773 113.619L61.0033 112.905ZM61.0026 112.905L60.3599 112.519L59.8727 113.329L60.7723 113.619L61.0026 112.905ZM61.0538 112.82L61.6965 113.207L60.4216 112.417L61.0538 112.82ZM60.3678 112.501C60.1449 112.85 60.2474 113.314 60.5965 113.537C60.9457 113.759 61.4094 113.657 61.6322 113.308L61 112.904L60.3678 112.501ZM168 89.9239L168.289 90.6161L168.381 90.5776L168.092 89.8854L167.803 89.1933L167.711 89.2318L168 89.9239ZM168.092 89.8854L168.335 90.595L170.857 89.7318L170.614 89.0222L170.372 88.3126L167.849 89.1758L168.092 89.8854ZM170.614 89.0222L170.857 89.7318C175.385 88.1821 178.762 87.4801 181.043 87.5513L181.066 86.8016L181.089 86.052C178.526 85.972 174.936 86.7504 170.372 88.3126L170.614 89.0222ZM181.066 86.8016L181.043 87.5513L182.386 87.5932L182.41 86.8436L182.433 86.0939L181.089 86.052L181.066 86.8016ZM182.41 86.8436L182.386 87.5932L183.73 87.6351L183.753 86.8855L183.776 86.1359L182.433 86.0939L182.41 86.8436ZM183.753 86.8855L183.73 87.6351C186.132 87.7101 187.79 87.9804 188.781 88.394L189.07 87.7019L189.359 87.0097C188.104 86.486 186.217 86.2121 183.776 86.1359L183.753 86.8855ZM189.07 87.7019L188.781 88.394L189.404 88.654L189.693 87.9619L189.982 87.2697L189.359 87.0097L189.07 87.7019ZM189.693 87.9619L189.404 88.654L190.027 88.914L190.316 88.2219L190.605 87.5298L189.982 87.2697L189.693 87.9619ZM190.316 88.2219L190.027 88.914C190.588 89.1483 191.009 89.3241 191.29 89.4412C191.43 89.4998 191.536 89.5438 191.606 89.5731C191.641 89.5877 191.667 89.5987 191.685 89.606C191.694 89.6097 191.7 89.6125 191.705 89.6143C191.707 89.6152 191.709 89.6159 191.71 89.6164C191.71 89.6167 191.711 89.6169 191.711 89.6171C191.712 89.6172 191.712 89.6174 191.713 89.6176C191.713 89.6176 191.713 89.6179 191.714 89.6183C191.715 89.6185 191.716 89.6191 191.717 89.6196C191.721 89.6208 192.246 89.6332 192.649 89.3004L192 88.9248L191.351 88.5493C191.754 88.2164 192.279 88.2288 192.283 88.2301C192.284 88.2305 192.285 88.2312 192.286 88.2314C192.286 88.2317 192.287 88.232 192.287 88.232C192.288 88.2322 192.288 88.2322 192.288 88.2322C192.288 88.2322 192.287 88.2321 192.287 88.2319C192.286 88.2314 192.284 88.2308 192.282 88.2299C192.278 88.2281 192.271 88.2253 192.262 88.2217C192.245 88.2144 192.219 88.2034 192.184 88.1888C192.113 88.1595 192.008 88.1156 191.868 88.057C191.587 87.9398 191.166 87.7641 190.605 87.5298L190.316 88.2219ZM192 88.9248L192.649 89.3004V89.3004L192 88.9248L191.351 88.5493L191.351 88.5493L192 88.9248ZM192 88.9248L192.267 88.224L192.174 88.1884L191.907 88.8892L191.639 89.5901L191.733 89.6257L192 88.9248ZM191.907 88.8892L191.64 89.5902L191.733 89.6257L192 88.9248L192.267 88.2238L192.173 88.1883L191.907 88.8892ZM168 95.9188L168.017 96.6686L168.117 96.6663L168.1 95.9165L168.083 95.1667L167.983 95.169L168 95.9188ZM168.1 95.9165L168.084 96.6664L170.914 96.725L170.929 95.9752L170.945 95.2254L168.116 95.1667L168.1 95.9165ZM170.929 95.9752L170.914 96.725C176 96.8305 179.708 97.2248 182.084 97.8832L182.284 97.1604L182.485 96.4376C179.92 95.7272 176.058 95.3314 170.945 95.2254L170.929 95.9752ZM182.284 97.1604L182.084 97.8832L183.455 98.2629L183.655 97.5401L183.855 96.8173L182.485 96.4376L182.284 97.1604ZM183.655 97.5401L183.455 98.2629L184.825 98.6426L185.025 97.9198L185.226 97.197L183.855 96.8173L183.655 97.5401ZM185.025 97.9198L184.825 98.6426C187.275 99.3212 188.708 100.097 189.347 100.871L189.926 100.394L190.504 99.9163C189.55 98.7606 187.717 97.8871 185.226 97.197L185.025 97.9198ZM189.926 100.394L189.347 100.871L189.789 101.407L190.368 100.929L190.946 100.452L190.504 99.9163L189.926 100.394ZM190.368 100.929L189.789 101.407L190.231 101.942L190.81 101.464L191.388 100.987L190.946 100.452L190.368 100.929ZM190.81 101.464L190.231 101.942C190.63 102.424 190.928 102.786 191.127 103.027C191.226 103.148 191.3 103.238 191.349 103.298C191.374 103.328 191.392 103.35 191.404 103.364C191.41 103.371 191.413 103.375 191.414 103.377C191.415 103.378 191.414 103.377 191.412 103.373C191.411 103.373 191.406 103.367 191.4 103.358C191.399 103.356 191.388 103.342 191.376 103.324C191.373 103.32 191.352 103.288 191.331 103.246C191.318 103.217 191.284 103.124 191.268 103.06C191.254 102.874 191.503 102.354 191.862 102.176L192.003 102.912L192.144 103.649C192.503 103.471 192.752 102.95 192.738 102.765C192.722 102.7 192.688 102.608 192.675 102.579C192.654 102.536 192.633 102.505 192.63 102.5C192.618 102.482 192.607 102.468 192.605 102.465C192.599 102.457 192.593 102.45 192.592 102.448C192.588 102.443 192.585 102.439 192.583 102.436C192.578 102.43 192.572 102.423 192.566 102.415C192.553 102.399 192.533 102.376 192.509 102.346C192.459 102.285 192.384 102.194 192.284 102.073C192.085 101.832 191.786 101.47 191.388 100.987L190.81 101.464ZM192.003 102.912L191.862 102.176L191.861 102.176L192.002 102.912L192.143 103.649L192.144 103.649L192.003 102.912ZM192.002 102.912L192.548 102.398L192.478 102.324L191.933 102.839L191.387 103.353L191.457 103.427L192.002 102.912ZM191.933 102.839L191.377 103.342L191.444 103.416L192 102.913L192.556 102.409L192.489 102.335L191.933 102.839ZM166 106.909L165.981 107.659L166.081 107.662L166.1 106.912L166.119 106.162L166.019 106.16L166 106.909ZM166.1 106.912L166.059 107.661L168.713 107.806L168.754 107.057L168.795 106.308L166.141 106.163L166.1 106.912ZM168.754 107.057L168.713 107.806C173.483 108.066 176.93 108.572 179.108 109.297L179.344 108.585L179.581 107.873C177.206 107.083 173.593 106.57 168.795 106.308L168.754 107.057ZM179.344 108.585L179.108 109.297L180.371 109.717L180.607 109.005L180.844 108.294L179.581 107.873L179.344 108.585ZM180.607 109.005L180.371 109.717L181.633 110.137L181.87 109.425L182.107 108.714L180.844 108.294L180.607 109.005ZM181.87 109.425L181.633 110.137C182.735 110.504 183.572 110.894 184.17 111.296C184.771 111.7 185.084 112.085 185.22 112.425L185.916 112.147L186.613 111.87C186.328 111.153 185.756 110.555 185.008 110.052C184.257 109.547 183.282 109.105 182.107 108.714L181.87 109.425ZM185.916 112.147L185.22 112.425L185.453 113.011L186.15 112.734L186.847 112.456L186.613 111.87L185.916 112.147ZM186.15 112.734L185.453 113.011L185.687 113.598L186.384 113.32L187.08 113.043L186.847 112.456L186.15 112.734ZM186.384 113.32L185.687 113.598C185.897 114.126 186.055 114.522 186.159 114.785C186.211 114.917 186.249 115.014 186.274 115.078C186.286 115.111 186.295 115.132 186.299 115.144C186.302 115.151 186.302 115.151 186.3 115.146C186.3 115.146 186.296 115.134 186.29 115.117C186.289 115.113 186.28 115.082 186.272 115.041C186.271 115.034 186.256 114.959 186.261 114.862C186.263 114.832 186.27 114.669 186.379 114.5C186.441 114.416 186.616 114.267 186.73 114.209C186.852 114.172 187.083 114.158 187.185 114.176L187.01 114.905L186.834 115.634C186.937 115.651 187.167 115.638 187.289 115.601C187.404 115.543 187.579 115.393 187.641 115.31C187.75 115.141 187.757 114.978 187.759 114.947C187.764 114.851 187.749 114.775 187.747 114.768C187.74 114.727 187.73 114.695 187.729 114.69C187.723 114.671 187.717 114.655 187.716 114.651C187.712 114.639 187.707 114.626 187.703 114.617C187.696 114.596 187.685 114.568 187.672 114.535C187.645 114.467 187.606 114.366 187.554 114.234C187.449 113.969 187.291 113.572 187.08 113.043L186.384 113.32ZM187.01 114.905L187.185 114.176L187.183 114.175L187.008 114.904L186.832 115.634L186.834 115.634L187.01 114.905ZM187.008 114.904L187.653 114.522L187.599 114.431L186.954 114.814L186.309 115.197L186.363 115.287L187.008 114.904ZM186.954 114.814L186.288 115.16L186.334 115.248L187 114.903L187.666 114.557L187.619 114.468L186.954 114.814ZM82 86.9265L82.3707 86.2745L82.2838 86.2251L81.9131 86.8771L81.5424 87.5291L81.6293 87.5785L82 86.9265ZM81.9131 86.8771L82.2024 86.1851L79.5396 85.0716L79.2502 85.7635L78.9609 86.4554L81.6237 87.569L81.9131 86.8771ZM79.2502 85.7635L79.5396 85.0716C74.7179 83.0552 70.8696 82.0576 68.0561 82.1902L68.0914 82.9394L68.1267 83.6886C70.5923 83.5723 74.1832 84.4575 78.9609 86.4554L79.2502 85.7635ZM68.0914 82.9394L68.0561 82.1902L66.5917 82.2593L66.627 83.0084L66.6623 83.7576L68.1267 83.6886L68.0914 82.9394ZM66.627 83.0084L66.5917 82.2593L65.1272 82.3283L65.1626 83.0775L65.1979 83.8266L66.6623 83.7576L66.627 83.0084ZM65.1626 83.0775L65.1272 82.3283C62.4734 82.4534 60.4397 82.7189 59.0755 83.1501L59.3016 83.8652L59.5276 84.5804C60.699 84.2101 62.5726 83.9504 65.1979 83.8266L65.1626 83.0775ZM59.3016 83.8652L59.0755 83.1501L58.3721 83.3724L58.5982 84.0876L58.8242 84.8027L59.5276 84.5804L59.3016 83.8652ZM58.5982 84.0876L58.3721 83.3724L57.6688 83.5948L57.8948 84.3099L58.1209 85.025L58.8242 84.8027L58.5982 84.0876ZM57.8948 84.3099L57.6688 83.5948C57.0347 83.7952 56.5585 83.9463 56.2407 84.0479C56.0821 84.0987 55.9615 84.1375 55.8801 84.1642C55.8399 84.1773 55.8065 84.1884 55.7818 84.1968C55.7706 84.2007 55.7554 84.206 55.7407 84.2115C55.7354 84.2134 55.718 84.2199 55.6974 84.2289C55.6911 84.2316 55.6605 84.2449 55.6238 84.2658C55.6114 84.2729 55.5578 84.3032 55.4992 84.355C55.4729 84.3782 55.404 84.4414 55.3451 84.544C55.2864 84.6464 55.1804 84.8968 55.2987 85.1944L55.9957 84.9173L56.6926 84.6401C56.8109 84.9377 56.7049 85.1881 56.6462 85.2905C56.5874 85.3929 56.5185 85.4561 56.4922 85.4793C56.4337 85.5309 56.3804 85.5611 56.3682 85.5681C56.3322 85.5887 56.3024 85.6015 56.2973 85.6037C56.2791 85.6117 56.2653 85.6167 56.2649 85.6169C56.2598 85.6188 56.2593 85.6188 56.2677 85.616C56.2824 85.611 56.308 85.6024 56.3467 85.5897C56.4231 85.5647 56.5398 85.5271 56.6977 85.4766C57.0129 85.3758 57.4872 85.2253 58.1209 85.025L57.8948 84.3099ZM55.9957 84.9173L55.2987 85.1944L55.2997 85.1967L55.9966 84.9196L56.6935 84.6424L56.6926 84.6401L55.9957 84.9173ZM55.9966 84.9196L56.1511 85.6535L56.2501 85.6327L56.0956 84.8988L55.941 84.1648L55.842 84.1857L55.9966 84.9196ZM56.0956 84.8988L55.8747 84.182L55.7791 84.2115L56 84.9282L56.2209 85.6449L56.3165 85.6155L56.0956 84.8988ZM82 94.9197L82.1702 94.1892L82.0728 94.1665L81.9026 94.897L81.7324 95.6274L81.8298 95.6501L82 94.9197ZM81.9026 94.897L82.0172 94.1558L79.2754 93.7319L79.1608 94.4731L79.0462 95.2143L81.788 95.6382L81.9026 94.897ZM79.1608 94.4731L79.2754 93.7319C74.311 92.9643 70.5043 92.9542 67.9566 93.8115L68.1958 94.5223L68.435 95.2332C70.6234 94.4967 74.1268 94.4537 79.0462 95.2143L79.1608 94.4731ZM68.1958 94.5223L67.9566 93.8115L66.6428 94.2536L66.882 94.9645L67.1212 95.6753L68.435 95.2332L68.1958 94.5223ZM66.882 94.9645L66.6428 94.2536L65.329 94.6957L65.5682 95.4066L65.8074 96.1174L67.1212 95.6753L66.882 94.9645ZM65.5682 95.4066L65.329 94.6957C62.9416 95.4992 61.1605 96.3383 60.0754 97.2414L60.5552 97.8178L61.035 98.3943C61.8978 97.6762 63.4587 96.9078 65.8074 96.1174L65.5682 95.4066ZM60.5552 97.8178L60.0754 97.2414L59.5351 97.6911L60.0148 98.2676L60.4946 98.844L61.035 98.3943L60.5552 97.8178ZM60.0148 98.2676L59.5351 97.6911L58.9947 98.1408L59.4745 98.7173L59.9543 99.2938L60.4946 98.844L60.0148 98.2676ZM59.4745 98.7173L58.9947 98.1408C58.5079 98.546 58.1433 98.8486 57.9003 99.0491C57.7785 99.1496 57.6887 99.2232 57.6298 99.271C57.5998 99.2953 57.5807 99.3105 57.5704 99.3186C57.5641 99.3235 57.5665 99.3215 57.5733 99.3165C57.5745 99.3157 57.5898 99.3044 57.6114 99.2908C57.6178 99.2868 57.6518 99.2652 57.6987 99.2439C57.7162 99.2359 57.7815 99.2062 57.8713 99.1894C57.9154 99.1812 58.0104 99.1672 58.1291 99.1865C58.2565 99.2072 58.4558 99.276 58.6053 99.4724L58.0086 99.9267L57.4119 100.381C57.5614 100.577 57.7608 100.646 57.8883 100.667C58.007 100.686 58.1021 100.672 58.1463 100.664C58.2362 100.647 58.3018 100.617 58.3195 100.609C58.367 100.588 58.4018 100.566 58.4093 100.561C58.433 100.546 58.4514 100.533 58.4565 100.529C58.4713 100.518 58.4855 100.507 58.4948 100.5C58.5157 100.484 58.5429 100.462 58.5744 100.436C58.6385 100.384 58.7323 100.307 58.8549 100.206C59.1005 100.003 59.4671 99.6992 59.9543 99.2938L59.4745 98.7173ZM58.0086 99.9267L58.6053 99.4724L58.6035 99.47L58.0068 99.9243L57.4101 100.379L57.4119 100.381L58.0086 99.9267ZM58.0068 99.9243L58.5387 100.453L58.6098 100.382L58.0779 99.8527L57.5461 99.324L57.4749 99.3955L58.0068 99.9243ZM58.0779 99.8527L57.608 99.2682L57.5301 99.3309L58 99.9154L58.4699 100.5L58.5479 100.437L58.0779 99.8527ZM83 102.913L83.0478 102.164L82.948 102.158L82.9002 102.906L82.8524 103.655L82.9522 103.661L83 102.913ZM82.9002 102.906L82.8731 102.157L80.0992 102.257L80.1263 103.007L80.1533 103.756L82.9273 103.656L82.9002 102.906ZM80.1263 103.007L80.0992 102.257C75.0753 102.438 71.3282 103.16 68.9799 104.512L69.3542 105.162L69.7285 105.812C71.7432 104.652 75.1775 103.936 80.1533 103.756L80.1263 103.007ZM69.3542 105.162L68.9799 104.512L67.7696 105.209L68.1439 105.859L68.5183 106.509L69.7285 105.812L69.3542 105.162ZM68.1439 105.859L67.7696 105.209L66.5593 105.906L66.9337 106.556L67.308 107.206L68.5183 106.509L68.1439 105.859ZM66.9337 106.556L66.5593 105.906C64.3565 107.175 62.7975 108.426 62.0473 109.687L62.6919 110.071L63.3365 110.454C63.879 109.542 65.1478 108.45 67.308 107.206L66.9337 106.556ZM62.6919 110.071L62.0473 109.687L61.6887 110.29L62.3333 110.673L62.9779 111.057L63.3365 110.454L62.6919 110.071ZM62.3333 110.673L61.6887 110.29L61.3301 110.893L61.9747 111.276L62.6193 111.66L62.9779 111.057L62.3333 110.673ZM61.9747 111.276L61.3301 110.893C61.007 111.436 60.7646 111.843 60.6029 112.114C60.522 112.25 60.4616 112.351 60.4213 112.418C60.4011 112.452 60.3865 112.476 60.3771 112.492C60.3722 112.5 60.3696 112.504 60.3687 112.506C60.3679 112.507 60.3695 112.504 60.3722 112.5C60.3728 112.499 60.3778 112.491 60.3846 112.481C60.3867 112.478 60.3972 112.463 60.4119 112.444C60.4168 112.438 60.4381 112.41 60.4691 112.379C60.488 112.36 60.5436 112.313 60.5815 112.285C60.6669 112.235 60.9955 112.155 61.2336 112.192L61.0033 112.905L60.773 113.619C61.0111 113.655 61.3397 113.576 61.4251 113.525C61.463 113.498 61.5187 113.45 61.5376 113.432C61.5686 113.4 61.5899 113.373 61.5949 113.366C61.6097 113.347 61.6203 113.332 61.6226 113.328C61.6297 113.318 61.6352 113.309 61.6365 113.307C61.6406 113.301 61.6442 113.295 61.6459 113.292C61.6502 113.285 61.6553 113.277 61.6607 113.268C61.6718 113.25 61.6877 113.223 61.7081 113.189C61.7491 113.121 61.8103 113.018 61.8913 112.882C62.0534 112.611 62.2961 112.203 62.6193 111.66L61.9747 111.276ZM61.0033 112.905L61.2336 112.192L61.2329 112.191L61.0026 112.905L60.7723 113.619L60.773 113.619L61.0033 112.905ZM61.0026 112.905L61.6453 113.292L61.6965 113.207L61.0538 112.82L60.4111 112.433L60.3599 112.519L61.0026 112.905ZM61.0538 112.82L60.4216 112.417L60.3678 112.501L61 112.904L61.6322 113.308L61.686 113.223L61.0538 112.82Z" fill="white"/>
<path d="M106 77.933C101.962 83.7416 95.2805 76.1139 96.9998 70.939C99.5397 55.8631 112.851 68.428 106 77.933Z" fill="white"/>
<path d="M106 77.933C101.962 83.7416 95.2805 76.1139 96.9998 70.939C99.5397 55.8631 112.851 68.428 106 77.933Z" stroke="#1D1D1B" stroke-width="1.04608" stroke-miterlimit="10"/>
<path d="M161 72.9372C159.147 84.4147 147.782 80.7033 151 69.9398C152.714 59.8229 163.202 63.7633 161 72.9372Z" fill="white"/>
<path d="M161 72.9372C159.147 84.4147 147.782 80.7033 151 69.9398C152.714 59.8229 163.202 63.7633 161 72.9372Z" stroke="#1D1D1B" stroke-width="1.04608" stroke-miterlimit="10"/>
<path d="M141.458 105.666C136.726 109.842 128.488 107.676 126.326 105.43C122.682 108.453 116.027 107.263 114.173 104.844C112.55 102.738 115.072 101.92 115.925 102.626C119.807 105.805 126.187 104.196 123.871 101.694C123.579 101.318 117.051 96.6815 119.078 95.2139C123.696 92.6361 131.177 92.6771 135.203 95.3338C136.201 95.9819 136.006 96.664 135.437 97.3183C134.245 98.1687 130.226 100.388 129.83 100.994C126.359 104.667 133.793 107.035 140.347 104.79C141.497 104.396 142.367 104.862 141.458 105.666Z" fill="white"/>
<path d="M52 142.879C52 152.812 41.5077 153.87 26 153.87C10.4923 153.87 0 152.812 0 142.879C0 132.946 0.520725 117.9 26 117.9C52.5192 117.9 52 132.946 52 142.879Z" fill="black"/>
<path d="M252 142.879C252 152.812 241.508 153.87 226 153.87C210.492 153.87 200 152.812 200 142.879C200 132.946 200.521 117.9 226 117.9C252.519 117.9 252 132.946 252 142.879Z" fill="black"/>
</svg>
