<svg width="1997" height="229" viewBox="0 0 1997 229" fill="none" xmlns="http://www.w3.org/2000/svg">
<path d="M180.24 177.99C187.407 185.157 190.99 192.61 190.99 200.35C190.99 206.943 188.697 212.533 184.11 217.12C179.523 221.707 174.077 224 167.77 224C160.603 224 154.01 220.99 147.99 214.97L69.3 135.42L49.52 149.18V202.07C49.52 208.663 46.94 213.967 41.78 217.98C36.9067 221.993 31.1733 224 24.58 224C17.9867 224 12.2533 222.137 7.38 218.41C2.79333 214.397 0.5 208.95 0.5 202.07V27.06C0.5 20.18 2.93667 14.8767 7.81 11.15C12.6833 7.13666 18.4167 5.13 25.01 5.13C31.6033 5.13 37.3367 7.13666 42.21 11.15C47.0833 14.8767 49.52 20.18 49.52 27.06V95L76.18 70.06L151 12.01C157.307 7.42333 163.47 5.13 169.49 5.13C175.51 5.13 180.527 7.13666 184.54 11.15C188.84 15.1633 190.99 20.0367 190.99 25.77C190.99 34.0833 186.69 41.68 178.09 48.56L108 104.89L180.24 177.99ZM322.439 0.829977C345.086 0.829977 365.009 5.70332 382.209 15.45C399.696 24.91 413.169 38.3833 422.629 55.87C432.089 73.07 436.819 92.9933 436.819 115.64C436.532 138 431.516 157.78 421.769 174.98C412.309 191.893 398.979 205.08 381.779 214.54C364.579 223.713 344.799 228.3 322.439 228.3C300.079 228.3 280.299 223.713 263.099 214.54C245.899 205.08 232.426 191.893 222.679 174.98C213.219 157.78 208.346 138 208.059 115.64C208.059 92.9933 212.789 73.07 222.249 55.87C231.996 38.3833 245.469 24.91 262.669 15.45C279.869 5.70332 299.792 0.829977 322.439 0.829977ZM322.439 185.3C341.646 185.3 357.126 178.85 368.879 165.95C380.632 153.05 386.509 136.28 386.509 115.64C386.509 94.4267 380.632 77.2267 368.879 64.04C357.126 50.5667 341.646 43.83 322.439 43.83C303.232 43.83 287.752 50.5667 275.999 64.04C264.246 77.2267 258.369 94.4267 258.369 115.64C258.369 136.28 264.246 153.05 275.999 165.95C287.752 178.85 303.232 185.3 322.439 185.3ZM672.792 5.13C679.385 5.13 685.262 7.13666 690.422 11.15C695.582 15.1633 698.162 20.61 698.162 27.49V200.78C698.162 207.947 695.582 213.68 690.422 217.98C685.262 221.993 679.385 224 672.792 224C666.198 224 660.465 221.993 655.592 217.98C650.718 213.967 648.282 208.233 648.282 200.78V134.13H527.882V200.78C527.882 208.233 525.445 213.967 520.572 217.98C515.698 221.993 510.108 224 503.802 224C496.922 224 490.902 221.993 485.742 217.98C480.868 213.68 478.432 207.947 478.432 200.78V27.49C478.432 20.61 480.725 15.1633 485.312 11.15C490.185 7.13666 495.918 5.13 502.512 5.13C509.392 5.13 515.268 7.13666 520.142 11.15C525.302 15.1633 527.882 20.61 527.882 27.49V92.42H648.282V27.49C648.282 20.61 650.718 15.1633 655.592 11.15C660.465 7.13666 666.198 5.13 672.792 5.13ZM936.499 5.13C944.526 5.13 950.689 7.28 954.989 11.58C959.576 15.88 961.869 21.04 961.869 27.06C961.869 32.7933 959.576 37.81 954.989 42.11C950.689 46.41 944.526 48.56 936.499 48.56H879.739V202.93C879.739 209.523 877.302 214.683 872.429 218.41C867.556 222.137 861.822 224 855.229 224C848.922 224 843.189 222.137 838.029 218.41C833.156 214.683 830.719 209.523 830.719 202.93V48.56H773.099C765.359 48.56 759.339 46.5533 755.039 42.54C751.026 38.24 749.019 33.2233 749.019 27.49C749.019 21.47 751.169 16.31 755.469 12.01C759.769 7.42333 765.646 5.13 773.099 5.13H936.499ZM1174.58 5.13C1181.75 5.13 1187.63 7.28 1192.21 11.58C1196.8 15.5933 1199.09 20.8967 1199.09 27.49V201.64C1199.09 208.233 1196.8 213.68 1192.21 217.98C1187.63 221.993 1181.75 224 1174.58 224C1167.7 224 1162.11 222.423 1157.81 219.27C1153.8 215.83 1151.36 211.387 1150.5 205.94C1141.04 213.393 1130.29 218.983 1118.25 222.71C1106.5 226.437 1094.89 228.3 1083.42 228.3C1062.78 228.3 1044.87 223.57 1029.67 214.11C1014.77 204.65 1003.3 191.32 995.275 174.12C987.248 156.92 983.235 136.853 983.235 113.92C983.235 91.8467 987.678 72.3533 996.565 55.44C1005.45 38.24 1017.78 24.91 1033.54 15.45C1049.6 5.70332 1068.09 0.829977 1089.01 0.829977C1098.76 0.829977 1109.08 2.69331 1119.97 6.41998C1131.15 10.1467 1141.33 15.45 1150.5 22.33C1151.65 16.8833 1154.23 12.7267 1158.24 9.85999C1162.54 6.70666 1167.99 5.13 1174.58 5.13ZM1088.58 184.87C1102.06 184.87 1114.38 182.003 1125.56 176.27C1137.03 170.537 1145.2 162.367 1150.07 151.76V77.37C1144.91 67.05 1136.89 59.0233 1125.99 53.29C1115.39 47.27 1104.21 44.26 1092.45 44.26C1074.39 44.26 1059.77 50.8533 1048.59 64.04C1037.7 76.94 1032.25 93.71 1032.25 114.35C1032.25 135.563 1037.41 152.62 1047.73 165.52C1058.05 178.42 1071.67 184.87 1088.58 184.87ZM1440.85 177.99C1448.01 185.157 1451.6 192.61 1451.6 200.35C1451.6 206.943 1449.3 212.533 1444.72 217.12C1440.13 221.707 1434.68 224 1428.38 224C1421.21 224 1414.62 220.99 1408.6 214.97L1329.91 135.42L1310.13 149.18V202.07C1310.13 208.663 1307.55 213.967 1302.39 217.98C1297.51 221.993 1291.78 224 1285.19 224C1278.59 224 1272.86 222.137 1267.99 218.41C1263.4 214.397 1261.11 208.95 1261.11 202.07V27.06C1261.11 20.18 1263.54 14.8767 1268.42 11.15C1273.29 7.13666 1279.02 5.13 1285.62 5.13C1292.21 5.13 1297.94 7.13666 1302.82 11.15C1307.69 14.8767 1310.13 20.18 1310.13 27.06V95L1336.79 70.06L1411.61 12.01C1417.91 7.42333 1424.08 5.13 1430.1 5.13C1436.12 5.13 1441.13 7.13666 1445.15 11.15C1449.45 15.1633 1451.6 20.0367 1451.6 25.77C1451.6 34.0833 1447.3 41.68 1438.7 48.56L1368.61 104.89L1440.85 177.99ZM1660.44 5.13C1668.47 5.13 1674.63 7.28 1678.93 11.58C1683.52 15.88 1685.81 21.04 1685.81 27.06C1685.81 32.7933 1683.52 37.81 1678.93 42.11C1674.63 46.41 1668.47 48.56 1660.44 48.56H1603.68V202.93C1603.68 209.523 1601.25 214.683 1596.37 218.41C1591.5 222.137 1585.77 224 1579.17 224C1572.87 224 1567.13 222.137 1561.97 218.41C1557.1 214.683 1554.66 209.523 1554.66 202.93V48.56H1497.04C1489.3 48.56 1483.28 46.5533 1478.98 42.54C1474.97 38.24 1472.96 33.2233 1472.96 27.49C1472.96 21.47 1475.11 16.31 1479.41 12.01C1483.71 7.42333 1489.59 5.13 1497.04 5.13H1660.44ZM1841.34 76.08C1859.4 76.08 1874.74 79.6633 1887.35 86.83C1900.25 93.71 1909.85 102.74 1916.16 113.92C1922.75 125.1 1926.05 136.997 1926.05 149.61C1926.05 162.51 1922.75 174.693 1916.16 186.16C1909.85 197.34 1900.39 206.513 1887.78 213.68C1875.17 220.56 1859.97 224 1842.2 224H1748.03C1741.72 224 1735.99 222.137 1730.83 218.41C1725.96 214.683 1723.52 209.523 1723.52 202.93V26.2C1723.52 19.6067 1725.96 14.4467 1730.83 10.72C1735.99 6.99333 1741.72 5.13 1748.03 5.13C1754.62 5.13 1760.36 6.99333 1765.23 10.72C1770.1 14.4467 1772.54 19.4633 1772.54 25.77V76.08H1841.34ZM1947.55 26.2C1947.55 19.6067 1949.99 14.4467 1954.86 10.72C1960.02 6.99333 1965.75 5.13 1972.06 5.13C1978.65 5.13 1984.39 6.99333 1989.26 10.72C1994.13 14.4467 1996.57 19.4633 1996.57 25.77V202.93C1996.57 209.523 1994.13 214.683 1989.26 218.41C1984.39 222.137 1978.65 224 1972.06 224C1965.75 224 1960.02 222.137 1954.86 218.41C1949.99 214.683 1947.55 209.523 1947.55 202.93V26.2ZM1842.63 184.87C1853.24 184.87 1861.41 181.717 1867.14 175.41C1872.87 169.103 1875.74 161.507 1875.74 152.62C1875.74 143.733 1872.73 135.993 1866.71 129.4C1860.69 122.807 1852.23 119.51 1841.34 119.51H1772.54V184.87H1842.63Z" fill="#E9FA9C"/>
</svg>
