<svg width="2015" height="229" viewBox="0 0 2015 229" fill="none" xmlns="http://www.w3.org/2000/svg">
<path d="M114.98 0.829977C137.627 0.829977 157.55 5.70332 174.75 15.45C192.237 24.91 205.71 38.3833 215.17 55.87C224.63 73.07 229.36 92.9933 229.36 115.64C229.073 138 224.057 157.78 214.31 174.98C204.85 191.893 191.52 205.08 174.32 214.54C157.12 223.713 137.34 228.3 114.98 228.3C92.62 228.3 72.84 223.713 55.64 214.54C38.44 205.08 24.9667 191.893 15.22 174.98C5.76 157.78 0.886667 138 0.600001 115.64C0.600001 92.9933 5.33 73.07 14.79 55.87C24.5367 38.3833 38.01 24.91 55.21 15.45C72.41 5.70332 92.3333 0.829977 114.98 0.829977ZM114.98 185.3C134.187 185.3 149.667 178.85 161.42 165.95C173.173 153.05 179.05 136.28 179.05 115.64C179.05 94.4267 173.173 77.2267 161.42 64.04C149.667 50.5667 134.187 43.83 114.98 43.83C95.7733 43.83 80.2933 50.5667 68.54 64.04C56.7867 77.2267 50.91 94.4267 50.91 115.64C50.91 136.28 56.7867 153.05 68.54 165.95C80.2933 178.85 95.7733 185.3 114.98 185.3ZM452.433 5.13C459.026 5.13 464.903 7.13666 470.063 11.15C475.223 15.1633 477.803 20.61 477.803 27.49V200.78C477.803 207.947 475.223 213.68 470.063 217.98C464.903 221.993 459.026 224 452.433 224C445.839 224 440.106 221.993 435.233 217.98C430.359 213.967 427.923 208.233 427.923 200.78V48.56H320.423V200.78C320.423 208.233 317.986 213.967 313.113 217.98C308.239 221.993 302.649 224 296.343 224C289.463 224 283.443 221.993 278.283 217.98C273.409 213.68 270.973 207.947 270.973 200.78V27.49C270.973 20.61 273.266 15.1633 277.853 11.15C282.726 7.13666 288.459 5.13 295.053 5.13H452.433ZM708.975 5.13C715.568 5.13 721.301 6.99333 726.175 10.72C731.048 14.4467 733.485 19.4633 733.485 25.77V202.93C733.485 209.523 731.048 214.683 726.175 218.41C721.301 222.137 715.568 224 708.975 224C702.668 224 696.935 222.137 691.775 218.41C686.901 214.683 684.465 209.523 684.465 202.93V80.38L569.655 217.12C565.355 221.707 559.048 224 550.735 224C544.428 224 538.695 222.137 533.535 218.41C528.661 214.683 526.225 209.523 526.225 202.93V26.2C526.225 19.6067 528.661 14.4467 533.535 10.72C538.695 6.99333 544.428 5.13 550.735 5.13C557.328 5.13 563.061 6.99333 567.935 10.72C572.808 14.4467 575.245 19.4633 575.245 25.77V149.18L690.055 12.44C694.068 7.56666 700.375 5.13 708.975 5.13ZM924.848 64.04C918.541 56.8733 911.088 51.57 902.488 48.13C893.888 44.69 884.858 42.97 875.398 42.97C856.478 42.97 841.285 49.5633 829.818 62.75C818.351 75.9367 812.618 93.4233 812.618 115.21C812.618 136.423 818.495 153.48 830.248 166.38C842.001 179.28 857.625 185.73 877.118 185.73C886.291 185.73 895.178 184.153 903.778 181C912.665 177.847 920.405 172.973 926.998 166.38C933.591 159.787 940.328 156.49 947.208 156.49C952.941 156.49 957.671 158.497 961.398 162.51C965.411 166.237 967.418 170.967 967.418 176.7C967.418 183.007 964.981 188.74 960.108 193.9C949.501 205.653 937.031 214.397 922.698 220.13C908.365 225.577 893.028 228.3 876.688 228.3C854.041 228.3 834.118 223.713 816.918 214.54C800.005 205.08 786.818 191.893 777.358 174.98C767.898 157.78 763.168 138 763.168 115.64C763.168 92.7067 767.755 72.64 776.928 55.44C786.388 37.9533 799.575 24.48 816.488 15.02C833.401 5.55998 853.038 0.829977 875.398 0.829977C892.025 0.829977 906.931 3.55332 920.118 9C933.591 14.16 945.918 23.0467 957.098 35.66C961.685 41.1067 963.978 46.41 963.978 51.57C963.978 57.59 961.828 62.6067 957.528 66.62C953.228 70.6333 948.211 72.64 942.478 72.64C935.598 72.64 929.721 69.7733 924.848 64.04ZM1186.33 5.13C1193.49 5.13 1199.37 7.28 1203.96 11.58C1208.54 15.5933 1210.84 20.8967 1210.84 27.49V201.64C1210.84 208.233 1208.54 213.68 1203.96 217.98C1199.37 221.993 1193.49 224 1186.33 224C1179.45 224 1173.86 222.423 1169.56 219.27C1165.54 215.83 1163.11 211.387 1162.25 205.94C1152.79 213.393 1142.04 218.983 1130 222.71C1118.24 226.437 1106.63 228.3 1095.17 228.3C1074.53 228.3 1056.61 223.57 1041.42 214.11C1026.51 204.65 1015.04 191.32 1007.02 174.12C998.988 156.92 994.975 136.853 994.975 113.92C994.975 91.8467 999.418 72.3533 1008.31 55.44C1017.19 38.24 1029.52 24.91 1045.29 15.45C1061.34 5.70332 1079.83 0.829977 1100.76 0.829977C1110.5 0.829977 1120.82 2.69331 1131.72 6.41998C1142.9 10.1467 1153.07 15.45 1162.25 22.33C1163.39 16.8833 1165.97 12.7267 1169.99 9.85999C1174.29 6.70666 1179.73 5.13 1186.33 5.13ZM1100.33 184.87C1113.8 184.87 1126.13 182.003 1137.31 176.27C1148.77 170.537 1156.94 162.367 1161.82 151.76V77.37C1156.66 67.05 1148.63 59.0233 1137.74 53.29C1127.13 47.27 1115.95 44.26 1104.2 44.26C1086.14 44.26 1071.52 50.8533 1060.34 64.04C1049.44 76.94 1044 93.71 1044 114.35C1044 135.563 1049.16 152.62 1059.48 165.52C1069.8 178.42 1083.41 184.87 1100.33 184.87ZM1469.79 5.13C1476.38 5.13 1482.26 7.13666 1487.42 11.15C1492.58 15.1633 1495.16 20.61 1495.16 27.49V200.78C1495.16 207.947 1492.58 213.68 1487.42 217.98C1482.26 221.993 1476.38 224 1469.79 224C1463.19 224 1457.46 221.993 1452.59 217.98C1447.71 213.967 1445.28 208.233 1445.28 200.78V134.13H1324.88V200.78C1324.88 208.233 1322.44 213.967 1317.57 217.98C1312.69 221.993 1307.1 224 1300.8 224C1293.92 224 1287.9 221.993 1282.74 217.98C1277.86 213.68 1275.43 207.947 1275.43 200.78V27.49C1275.43 20.61 1277.72 15.1633 1282.31 11.15C1287.18 7.13666 1292.91 5.13 1299.51 5.13C1306.39 5.13 1312.26 7.13666 1317.14 11.15C1322.3 15.1633 1324.88 20.61 1324.88 27.49V92.42H1445.28V27.49C1445.28 20.61 1447.71 15.1633 1452.59 11.15C1457.46 7.13666 1463.19 5.13 1469.79 5.13ZM1737.36 5.13C1743.96 5.13 1749.69 6.99333 1754.56 10.72C1759.44 14.4467 1761.87 19.4633 1761.87 25.77V202.93C1761.87 209.523 1759.44 214.683 1754.56 218.41C1749.69 222.137 1743.96 224 1737.36 224C1731.06 224 1725.32 222.137 1720.16 218.41C1715.29 214.683 1712.85 209.523 1712.85 202.93V80.38L1598.04 217.12C1593.74 221.707 1587.44 224 1579.12 224C1572.82 224 1567.08 222.137 1561.92 218.41C1557.05 214.683 1554.61 209.523 1554.61 202.93V26.2C1554.61 19.6067 1557.05 14.4467 1561.92 10.72C1567.08 6.99333 1572.82 5.13 1579.12 5.13C1585.72 5.13 1591.45 6.99333 1596.32 10.72C1601.2 14.4467 1603.63 19.4633 1603.63 25.77V149.18L1718.44 12.44C1722.46 7.56666 1728.76 5.13 1737.36 5.13ZM1906.37 185.73C1924.71 185.73 1940.34 180.713 1953.24 170.68C1959.54 165.233 1965.99 162.51 1972.59 162.51C1978.61 162.51 1983.62 164.66 1987.64 168.96C1991.94 173.26 1994.09 178.277 1994.09 184.01C1994.09 190.603 1991.22 196.767 1985.49 202.5C1976.03 211.673 1964.42 218.41 1950.66 222.71C1937.18 226.723 1922.85 228.587 1907.66 228.3C1885.3 228.3 1865.52 223.713 1848.32 214.54C1831.12 205.367 1817.79 192.61 1808.33 176.27C1798.87 159.643 1794.14 140.723 1794.14 119.51C1794.14 96.0033 1798.72 75.3633 1807.9 57.59C1817.07 39.53 1830.11 25.6267 1847.03 15.88C1863.94 5.84665 1883.72 0.829977 1906.37 0.829977C1940.19 0.829977 1966.57 11.0066 1985.49 31.36C2004.41 51.7133 2014.01 78.8033 2014.3 112.63C2014.3 121.23 2012.58 127.68 2009.14 131.98C2005.7 136.28 1998.39 138.43 1987.21 138.43H1844.02C1848.03 152.477 1855.63 163.943 1866.81 172.83C1877.99 181.43 1891.17 185.73 1906.37 185.73ZM1906.8 43.4C1890.17 43.4 1876.27 48.56 1865.09 58.88C1853.91 69.2 1846.74 82.96 1843.59 100.16H1968.72C1967 82.3867 1961.12 68.4833 1951.09 58.45C1941.05 48.4167 1926.29 43.4 1906.8 43.4Z" fill="#E9FA9C"/>
</svg>
