<svg width="1898" height="744" viewBox="0 0 1898 744" fill="none" xmlns="http://www.w3.org/2000/svg">
<path d="M225.311 0.286921C231.779 0.286921 237.544 2.25551 242.606 6.1927C247.668 10.1299 250.199 15.4732 250.199 22.2227V246.221C250.199 253.251 247.668 258.876 242.606 263.094C237.544 267.031 231.779 269 225.311 269C218.842 269 213.218 267.031 208.437 263.094C203.656 259.157 201.266 253.532 201.266 246.221V40.7837H130.818L100.867 193.912C97.2113 216.41 89.6181 234.55 78.0878 248.33C66.8387 262.11 48.137 269 21.9829 269H21.561C15.9365 269 11.015 267.031 6.79657 263.094C2.85939 258.876 0.890792 253.954 0.890792 248.33C0.890792 242.705 2.85939 237.924 6.79657 233.987C11.015 229.769 15.9365 227.66 21.561 227.66C29.4354 227.66 35.3412 225.972 39.2784 222.597C43.2156 218.941 45.7466 215.145 46.8715 211.208C48.2777 207.271 50.2463 199.959 52.7773 189.272L86.9465 25.1756C88.9151 16.1763 92.571 9.84867 97.9144 6.1927C103.539 2.25551 111.413 0.286921 121.537 0.286921H225.311ZM487.113 54.2826C494.143 54.2826 499.908 56.3919 504.408 60.6103C508.908 64.5475 511.158 69.7502 511.158 76.2184V247.064C511.158 253.532 508.908 258.876 504.408 263.094C499.908 267.031 494.143 269 487.113 269C480.363 269 474.879 267.453 470.661 264.36C466.724 260.985 464.333 256.626 463.489 251.283C454.209 258.595 443.663 264.079 431.851 267.734C420.321 271.39 408.931 273.218 397.682 273.218C377.434 273.218 359.857 268.578 344.952 259.298C330.328 250.017 319.079 236.94 311.205 220.066C303.33 203.193 299.393 183.507 299.393 161.009C299.393 139.354 303.752 120.231 312.47 103.638C321.188 86.7644 333.281 73.6874 348.749 64.4068C364.497 54.8451 382.637 50.0642 403.166 50.0642C412.728 50.0642 422.852 51.8922 433.539 55.5482C444.507 59.2041 454.49 64.4068 463.489 71.1563C464.614 65.813 467.145 61.7352 471.083 58.9229C475.301 55.8294 480.644 54.2826 487.113 54.2826ZM402.744 230.612C415.962 230.612 428.055 227.8 439.023 222.176C450.272 216.551 458.287 208.536 463.068 198.131V125.152C458.006 115.028 450.131 107.153 439.445 101.529C429.039 95.6231 418.071 92.6702 406.541 92.6702C388.824 92.6702 374.481 99.1385 363.513 112.075C352.826 124.73 347.483 141.182 347.483 161.43C347.483 182.241 352.545 198.974 362.669 211.63C372.794 224.285 386.152 230.612 402.744 230.612ZM752.54 54.2826C759.008 54.2826 764.773 56.2512 769.835 60.1884C774.898 64.1256 777.429 69.4689 777.429 76.2184V246.221C777.429 253.251 774.898 258.876 769.835 263.094C764.773 267.031 759.008 269 752.54 269C746.072 269 740.447 267.031 735.666 263.094C730.885 259.157 728.495 253.532 728.495 246.221V96.8886H623.035V246.221C623.035 253.532 620.644 259.157 615.863 263.094C611.082 267.031 605.598 269 599.411 269C592.662 269 586.756 267.031 581.694 263.094C576.913 258.876 574.523 253.251 574.523 246.221V76.2184C574.523 69.4689 576.773 64.1256 581.272 60.1884C586.053 56.2512 591.678 54.2826 598.146 54.2826H752.54ZM999.996 54.2826C1007.03 54.2826 1012.79 56.3919 1017.29 60.6103C1021.79 64.5475 1024.04 69.7502 1024.04 76.2184V247.064C1024.04 253.532 1021.79 258.876 1017.29 263.094C1012.79 267.031 1007.03 269 999.996 269C993.247 269 987.763 267.453 983.544 264.36C979.607 260.985 977.217 256.626 976.373 251.283C967.093 258.595 956.546 264.079 944.735 267.734C933.205 271.39 921.815 273.218 910.566 273.218C890.317 273.218 872.741 268.578 857.836 259.298C843.212 250.017 831.963 236.94 824.088 220.066C816.214 203.193 812.277 183.507 812.277 161.009C812.277 139.354 816.636 120.231 825.354 103.638C834.072 86.7644 846.165 73.6874 861.632 64.4068C877.381 54.8451 895.52 50.0642 916.05 50.0642C925.611 50.0642 935.736 51.8922 946.422 55.5482C957.39 59.2041 967.374 64.4068 976.373 71.1563C977.498 65.813 980.029 61.7352 983.966 58.9229C988.185 55.8294 993.528 54.2826 999.996 54.2826ZM915.628 230.612C928.846 230.612 940.938 227.8 951.906 222.176C963.155 216.551 971.17 208.536 975.951 198.131V125.152C970.889 115.028 963.015 107.153 952.328 101.529C941.923 95.6231 930.955 92.6702 919.424 92.6702C901.707 92.6702 887.364 99.1385 876.397 112.075C865.71 124.73 860.367 141.182 860.367 161.43C860.367 182.241 865.429 198.974 875.553 211.63C885.677 224.285 899.035 230.612 915.628 230.612Z" fill="#E9FA9C"/>
<path d="M487.274 452.501C493.742 452.501 499.507 454.47 504.57 458.407C509.632 462.344 512.163 467.688 512.163 474.437V644.439C512.163 651.47 509.632 657.095 504.57 661.313C499.507 665.25 493.742 667.219 487.274 667.219C480.806 667.219 475.181 665.25 470.4 661.313C465.62 657.376 463.229 651.751 463.229 644.439V495.107H357.769V644.439C357.769 651.751 355.378 657.376 350.597 661.313C345.817 665.25 340.333 667.219 334.146 667.219C327.396 667.219 321.49 665.25 316.428 661.313C311.647 657.095 309.257 651.47 309.257 644.439V474.437C309.257 467.688 311.507 462.344 316.006 458.407C320.787 454.47 326.412 452.501 332.88 452.501H487.274ZM659.221 448.283C681.438 448.283 700.983 453.064 717.857 462.626C735.012 471.906 748.229 485.124 757.51 502.279C766.79 519.152 771.431 538.698 771.431 560.915C771.149 582.85 766.228 602.255 756.666 619.129C747.386 635.721 734.308 648.658 717.435 657.938C700.561 666.938 681.156 671.437 659.221 671.437C637.285 671.437 617.88 666.938 601.006 657.938C584.133 648.658 570.915 635.721 561.353 619.129C552.073 602.255 547.292 582.85 547.011 560.915C547.011 538.698 551.651 519.152 560.932 502.279C570.493 485.124 583.711 471.906 600.585 462.626C617.458 453.064 637.004 448.283 659.221 448.283ZM659.221 629.253C678.063 629.253 693.249 622.925 704.78 610.27C716.31 597.615 722.075 581.163 722.075 560.915C722.075 540.104 716.31 523.23 704.78 510.294C693.249 497.076 678.063 490.467 659.221 490.467C640.378 490.467 625.192 497.076 613.662 510.294C602.131 523.23 596.366 540.104 596.366 560.915C596.366 581.163 602.131 597.615 613.662 610.27C625.192 622.925 640.378 629.253 659.221 629.253ZM1016.42 452.501C1023.17 452.501 1029.08 454.751 1034.14 459.251C1039.49 463.75 1042.16 469.375 1042.16 476.125V646.549C1042.16 653.017 1039.63 658.079 1034.56 661.735C1029.78 665.391 1024.3 667.219 1018.11 667.219C1011.64 667.219 1006.02 665.391 1001.24 661.735C996.458 658.079 994.067 653.017 994.067 646.549V550.79L948.93 614.067C946.118 618.285 942.462 621.519 937.962 623.769C933.744 625.738 929.104 626.722 924.042 626.722C919.261 626.722 914.62 625.738 910.121 623.769C905.621 621.519 901.965 618.285 899.153 614.067L854.016 550.79V646.549C854.016 653.017 851.625 658.079 846.845 661.735C842.064 665.391 836.439 667.219 829.971 667.219C823.784 667.219 818.159 665.391 813.097 661.735C808.316 658.079 805.926 653.017 805.926 646.549V476.125C805.926 469.375 808.457 463.75 813.519 459.251C818.862 454.751 824.909 452.501 831.658 452.501C839.533 452.501 845.72 455.876 850.219 462.626L924.042 571.461L997.864 462.626C1002.36 455.876 1008.55 452.501 1016.42 452.501ZM1179.93 448.283C1202.15 448.283 1221.69 453.064 1238.57 462.626C1255.72 471.906 1268.94 485.124 1278.22 502.279C1287.5 519.152 1292.14 538.698 1292.14 560.915C1291.86 582.85 1286.94 602.255 1277.38 619.129C1268.1 635.721 1255.02 648.658 1238.15 657.938C1221.27 666.938 1201.87 671.437 1179.93 671.437C1158 671.437 1138.59 666.938 1121.72 657.938C1104.84 648.658 1091.63 635.721 1082.06 619.129C1072.78 602.255 1068 582.85 1067.72 560.915C1067.72 538.698 1072.36 519.152 1081.64 502.279C1091.2 485.124 1104.42 471.906 1121.3 462.626C1138.17 453.064 1157.71 448.283 1179.93 448.283ZM1179.93 629.253C1198.77 629.253 1213.96 622.925 1225.49 610.27C1237.02 597.615 1242.79 581.163 1242.79 560.915C1242.79 540.104 1237.02 523.23 1225.49 510.294C1213.96 497.076 1198.77 490.467 1179.93 490.467C1161.09 490.467 1145.9 497.076 1134.37 510.294C1122.84 523.23 1117.08 540.104 1117.08 560.915C1117.08 581.163 1122.84 597.615 1134.37 610.27C1145.9 622.925 1161.09 629.253 1179.93 629.253ZM1609.27 624.613C1624.74 624.613 1632.47 631.503 1632.47 645.283V701.81C1632.47 708.278 1630.36 713.199 1626.14 716.574C1621.93 720.23 1616.86 722.058 1610.96 722.058C1605.33 722.058 1600.41 720.23 1596.19 716.574C1591.97 713.199 1589.87 708.278 1589.87 701.81V667.219H1343.93C1337.46 667.219 1331.84 665.25 1327.06 661.313C1322.56 657.376 1320.31 652.032 1320.31 645.283V475.281C1320.31 468.25 1322.7 462.766 1327.48 458.829C1332.54 454.611 1338.45 452.501 1345.2 452.501C1351.38 452.501 1356.87 454.47 1361.65 458.407C1366.43 462.344 1368.82 467.969 1368.82 475.281V624.613H1437.58V475.281C1437.58 467.969 1439.97 462.344 1444.75 458.407C1449.53 454.47 1455.16 452.501 1461.63 452.501C1468.09 452.501 1473.86 454.611 1478.92 458.829C1483.98 462.766 1486.51 468.25 1486.51 475.281V624.613H1555.27V475.281C1555.27 467.969 1557.67 462.344 1562.45 458.407C1567.23 454.47 1572.85 452.501 1579.32 452.501C1585.79 452.501 1591.55 454.611 1596.62 458.829C1601.68 462.766 1604.21 468.25 1604.21 475.281V624.613H1609.27ZM1845.46 452.501C1851.93 452.501 1857.55 454.329 1862.33 457.985C1867.11 461.641 1869.5 466.563 1869.5 472.75V646.549C1869.5 653.017 1867.11 658.079 1862.33 661.735C1857.55 665.391 1851.93 667.219 1845.46 667.219C1839.27 667.219 1833.65 665.391 1828.59 661.735C1823.8 658.079 1821.41 653.017 1821.41 646.549V526.324L1708.78 660.469C1704.56 664.969 1698.38 667.219 1690.22 667.219C1684.03 667.219 1678.41 665.391 1673.35 661.735C1668.57 658.079 1666.18 653.017 1666.18 646.549V473.172C1666.18 466.703 1668.57 461.641 1673.35 457.985C1678.41 454.329 1684.03 452.501 1690.22 452.501C1696.69 452.501 1702.31 454.329 1707.09 457.985C1711.88 461.641 1714.27 466.563 1714.27 472.75V593.818L1826.9 459.673C1830.84 454.892 1837.02 452.501 1845.46 452.501Z" fill="#E9FA9C"/>
</svg>
