<svg width="448" height="338" viewBox="0 0 448 338" fill="none" xmlns="http://www.w3.org/2000/svg">
<path d="M420.107 228.903C492.557 137.229 407.731 -0.987099 295.092 1.12593C237.781 -1.21226 185.306 29.293 146.074 69.0595C132.845 82.188 119.619 95.2337 107.069 109.02C98.6382 111.965 89.9401 113.335 82.0658 118.012C66.3519 110.495 25.5493 75.3873 31.0596 118.012C32.4154 128.715 33.8619 139.536 37.0603 149.98C37.6165 151.764 38.0511 151.967 37.0603 153.976C32.3496 163.71 30.6076 174.208 31.0596 184.946C31.9809 188.808 0.829987 177.833 1.05594 183.947C-0.404205 187.827 27.1485 188.671 31.0596 190.94C32.398 195.34 32.2522 200.268 34.0599 204.927C30.7399 204.303 -7.68378 209.934 7.05667 213.918C16.3564 211.961 26.8822 207.583 36.0602 209.922C19.0252 216.001 5.44815 232.28 6.05655 250.882C6.76926 265.067 15.7443 273.606 29.0593 275.857C29.1115 275.978 33.1039 276.134 34.0599 275.857C43.968 272.93 49.3945 269.052 53.0623 256.876C54.5398 252.269 55.0184 247.67 54.0624 242.889C54.3926 240.88 56.7939 239.436 58.0629 237.894C60.5486 236.232 61.3438 231.664 65.0637 233.898C72.6947 236.999 79.9314 239.87 88.0665 240.891C89.2137 241.723 90.9023 240.095 92.067 240.891C93.5097 240.493 94.6247 242.323 96.0674 241.89C98.6749 242.583 102.357 241.752 105.069 241.89C121.634 241.613 138.752 242.086 155.075 237.894C169.746 232.144 184.592 232.934 200.08 232.899C205.086 234.597 203.501 209.836 209.081 212.919C209.411 224.696 203.741 236.846 203.08 248.884C201.255 273.27 199.166 300.746 212.082 322.811C222.146 341.915 254.141 342.821 258.087 318.815C258.556 288.592 255.125 260.692 274.089 233.898C295.991 231.716 318.639 233.644 341.097 232.899C368.145 232.899 390.042 233.898 417.106 233.898C417.802 232.928 418.942 230.774 420.107 228.903ZM61.0632 187.943C60.2636 178.677 71.8734 176.847 72.0645 186.944C73.6116 197.89 61.2197 199.409 61.0632 187.943ZM103.068 220.911C103.798 227.822 97.0583 215.425 96.0674 213.918C93.4253 216.516 92.2731 222.533 88.0665 221.91C88.0665 217.251 97.0129 214.321 93.0671 209.922C92.6847 209.315 89.2311 206.792 88.0665 205.926C87.5276 205.267 88.0758 204.551 89.0666 203.928C93.082 201.416 98.6183 201.312 103.068 203.928C105.015 205.417 99.3633 209.558 99.0678 209.922C95.5392 213.542 101.817 217.274 103.068 220.911ZM135.072 193.937C129.475 183.476 143.639 173.527 144.073 188.942C145.081 194.346 138.34 200.311 135.072 193.937ZM190.079 144.985C188.775 94.5323 185.834 71.9067 143.073 121.009C142.169 122.1 140.255 122.481 139.073 121.009C138.43 118.151 143.648 116.302 145.073 114.016C168.001 86.4076 190.567 74.6724 192.079 122.008C191.488 124.952 196.163 151.168 190.079 144.985ZM328.096 226.905C328.339 231.218 324.174 230.097 325.095 225.906C325.738 222.442 325.211 213.467 330.096 213.918C332.182 216.412 327.279 223.095 328.096 226.905ZM363.1 197.933C344.796 196.271 313.535 193.805 310.093 217.914C311.032 255.585 290.537 196.397 336.097 193.937C305.155 168.044 312.041 115.707 340.097 90.039C341.366 87.3197 366.801 71.314 361.1 81.0478C333.774 91.076 317.93 122.043 319.094 149.98C320.954 166.157 326.568 189.37 345.098 192.938C348.974 193.77 365.874 191.657 366.1 195.935C365.961 197.165 364.299 198.211 363.1 197.933Z" fill="#030404"/>
<path d="M420.107 228.903C492.557 137.229 407.731 -0.987099 295.092 1.12593C237.781 -1.21226 185.306 29.293 146.074 69.0595C132.845 82.188 119.619 95.2337 107.069 109.02C98.6382 111.965 89.9401 113.335 82.0658 118.012C66.3519 110.495 25.5493 75.3873 31.0596 118.012C32.4154 128.715 33.8619 139.536 37.0603 149.98C37.6165 151.764 38.0511 151.967 37.0603 153.976C32.3496 163.71 30.6076 174.208 31.0596 184.946C31.9809 188.808 0.829987 177.833 1.05594 183.947C-0.404205 187.827 27.1485 188.671 31.0596 190.94C32.398 195.34 32.2522 200.268 34.0599 204.927C30.7399 204.303 -7.68378 209.934 7.05667 213.918C16.3564 211.961 26.8822 207.583 36.0602 209.922C19.0252 216.001 5.44815 232.28 6.05655 250.882C6.76926 265.067 15.7443 273.606 29.0593 275.857C29.1115 275.978 33.1039 276.134 34.0599 275.857C43.968 272.93 49.3945 269.052 53.0623 256.876C54.5398 252.269 55.0184 247.67 54.0624 242.889C54.3926 240.88 56.7939 239.436 58.0629 237.894C60.5486 236.232 61.3438 231.664 65.0637 233.898C72.6947 236.999 79.9314 239.87 88.0665 240.891C89.2137 241.723 90.9023 240.095 92.067 240.891C93.5097 240.493 94.6247 242.323 96.0674 241.89C98.6749 242.583 102.357 241.752 105.069 241.89C121.634 241.613 138.752 242.086 155.075 237.894C169.746 232.144 184.592 232.934 200.08 232.899C205.086 234.597 203.501 209.836 209.081 212.919C209.411 224.696 203.741 236.846 203.08 248.884C201.255 273.27 199.166 300.746 212.082 322.811C222.146 341.915 254.141 342.821 258.087 318.815C258.556 288.592 255.125 260.692 274.089 233.898C295.991 231.716 318.639 233.644 341.097 232.899C368.145 232.899 390.042 233.898 417.106 233.898C417.802 232.928 418.942 230.774 420.107 228.903ZM61.0632 187.943C60.2636 178.677 71.8734 176.847 72.0645 186.944C73.6116 197.89 61.2197 199.409 61.0632 187.943ZM103.068 220.911C103.798 227.822 97.0583 215.425 96.0674 213.918C93.4253 216.516 92.2731 222.533 88.0665 221.91C88.0665 217.251 97.0129 214.321 93.0671 209.922C92.6847 209.315 89.2311 206.792 88.0665 205.926C87.5276 205.267 88.0758 204.551 89.0666 203.928C93.082 201.416 98.6183 201.312 103.068 203.928C105.015 205.417 99.3633 209.558 99.0678 209.922C95.5392 213.542 101.817 217.274 103.068 220.911ZM135.072 193.937C129.475 183.476 143.639 173.527 144.073 188.942C145.081 194.346 138.34 200.311 135.072 193.937ZM190.079 144.985C188.775 94.5323 185.834 71.9067 143.073 121.009C142.169 122.1 140.255 122.481 139.073 121.009C138.43 118.151 143.648 116.302 145.073 114.016C168.001 86.4076 190.567 74.6724 192.079 122.008C191.488 124.952 196.163 151.168 190.079 144.985ZM328.096 226.905C328.339 231.218 324.174 230.097 325.095 225.906C325.738 222.442 325.211 213.467 330.096 213.918C332.182 216.412 327.279 223.095 328.096 226.905ZM363.1 197.933C344.796 196.271 313.535 193.805 310.093 217.914C311.032 255.585 290.537 196.397 336.097 193.937C305.155 168.044 312.041 115.707 340.097 90.039C341.366 87.3197 366.801 71.314 361.1 81.0478C333.774 91.076 317.93 122.043 319.094 149.98C320.954 166.157 326.568 189.37 345.098 192.938C348.974 193.77 365.874 191.657 366.1 195.935C365.961 197.165 364.299 198.211 363.1 197.933Z" stroke="#1D1D1B" stroke-width="0.75" stroke-miterlimit="10"/>
</svg>
