<svg width="1722" height="265" viewBox="0 0 1722 265" fill="none" xmlns="http://www.w3.org/2000/svg">
<path d="M188.5 74C181.167 65.6667 172.5 59.5 162.5 55.5C152.5 51.5 142 49.5 131 49.5C109 49.5 91.3333 57.1667 78 72.5C64.6667 87.8333 58 108.167 58 133.5C58 158.167 64.8333 178 78.5 193C92.1667 208 110.333 215.5 133 215.5C143.667 215.5 154 213.667 164 210C174.333 206.333 183.333 200.667 191 193C198.667 185.333 206.5 181.5 214.5 181.5C221.167 181.5 226.667 183.833 231 188.5C235.667 192.833 238 198.333 238 205C238 212.333 235.167 219 229.5 225C217.167 238.667 202.667 248.833 186 255.5C169.333 261.833 151.5 265 132.5 265C106.167 265 83 259.667 63 249C43.3333 238 28 222.667 17 203C6 183 0.500001 160 0.500001 134C0.500001 107.333 5.83333 84 16.5 64C27.5 43.6667 42.8333 28 62.5 17C82.1667 5.99998 105 0.499973 131 0.499973C150.333 0.499973 167.667 3.66665 183 10C198.667 16 213 26.3333 226 41C231.333 47.3333 234 53.5 234 59.5C234 66.5 231.5 72.3333 226.5 77C221.5 81.6667 215.667 84 209 84C201 84 194.167 80.6667 188.5 74ZM457.543 74C450.21 65.6667 441.543 59.5 431.543 55.5C421.543 51.5 411.043 49.5 400.043 49.5C378.043 49.5 360.376 57.1667 347.043 72.5C333.71 87.8333 327.043 108.167 327.043 133.5C327.043 158.167 333.876 178 347.543 193C361.21 208 379.376 215.5 402.043 215.5C412.71 215.5 423.043 213.667 433.043 210C443.376 206.333 452.376 200.667 460.043 193C467.71 185.333 475.543 181.5 483.543 181.5C490.21 181.5 495.71 183.833 500.043 188.5C504.71 192.833 507.043 198.333 507.043 205C507.043 212.333 504.21 219 498.543 225C486.21 238.667 471.71 248.833 455.043 255.5C438.376 261.833 420.543 265 401.543 265C375.21 265 352.043 259.667 332.043 249C312.376 238 297.043 222.667 286.043 203C275.043 183 269.543 160 269.543 134C269.543 107.333 274.876 84 285.543 64C296.543 43.6667 311.876 28 331.543 17C351.21 5.99998 374.043 0.499973 400.043 0.499973C419.376 0.499973 436.71 3.66665 452.043 10C467.71 16 482.043 26.3333 495.043 41C500.376 47.3333 503.043 53.5 503.043 59.5C503.043 66.5 500.543 72.3333 495.543 77C490.543 81.6667 484.71 84 478.043 84C470.043 84 463.21 80.6667 457.543 74ZM695.086 88C716.086 88 733.919 92.1667 748.586 100.5C763.586 108.5 774.753 119 782.086 132C789.753 145 793.586 158.833 793.586 173.5C793.586 188.5 789.753 202.667 782.086 216C774.753 229 763.753 239.667 749.086 248C734.419 256 716.753 260 696.086 260H586.586C579.253 260 572.586 257.833 566.586 253.5C560.919 249.167 558.086 243.167 558.086 235.5V30C558.086 22.3333 560.919 16.3333 566.586 12C572.586 7.66666 579.253 5.5 586.586 5.5C594.253 5.5 600.919 7.66666 606.586 12C612.253 16.3333 615.086 22.1667 615.086 29.5V88H695.086ZM818.586 30C818.586 22.3333 821.419 16.3333 827.086 12C833.086 7.66666 839.753 5.5 847.086 5.5C854.753 5.5 861.419 7.66666 867.086 12C872.753 16.3333 875.586 22.1667 875.586 29.5V235.5C875.586 243.167 872.753 249.167 867.086 253.5C861.419 257.833 854.753 260 847.086 260C839.753 260 833.086 257.833 827.086 253.5C821.419 249.167 818.586 243.167 818.586 235.5V30ZM696.586 214.5C708.919 214.5 718.419 210.833 725.086 203.5C731.753 196.167 735.086 187.333 735.086 177C735.086 166.667 731.586 157.667 724.586 150C717.586 142.333 707.753 138.5 695.086 138.5H615.086V214.5H696.586ZM1147.79 5.5C1154.12 5.5 1159.62 7.33333 1164.29 11C1169.29 14.6667 1171.79 19.8333 1171.79 26.5V235.5C1171.79 243.167 1168.95 249.167 1163.29 253.5C1157.62 257.833 1150.95 260 1143.29 260C1135.95 260 1129.29 257.833 1123.29 253.5C1117.62 249.167 1114.79 243.167 1114.79 235.5V56H1051.79L1028.29 167.5C1022.29 199.167 1012.95 222.5 1000.29 237.5C987.618 252.5 967.785 260 940.785 260C931.452 260 924.118 257.5 918.785 252.5C913.452 247.5 910.785 241.667 910.785 235C910.785 228.333 913.452 222.5 918.785 217.5C924.452 212.167 931.952 209.5 941.285 209.5C949.618 209.5 955.618 206.667 959.285 201C962.952 195 965.785 187.833 967.785 179.5L999.785 26.5C1001.45 19.8333 1004.62 14.6667 1009.29 11C1013.95 7.33333 1019.79 5.5 1026.79 5.5H1147.79ZM1433.5 206.5C1441.83 214.833 1446 223.5 1446 232.5C1446 240.167 1443.33 246.667 1438 252C1432.66 257.333 1426.33 260 1419 260C1410.66 260 1403 256.5 1396 249.5L1304.5 157L1281.5 173V234.5C1281.5 242.167 1278.5 248.333 1272.5 253C1266.83 257.667 1260.16 260 1252.5 260C1244.83 260 1238.16 257.833 1232.5 253.5C1227.16 248.833 1224.5 242.5 1224.5 234.5V31C1224.5 23 1227.33 16.8333 1233 12.5C1238.66 7.83333 1245.33 5.5 1253 5.5C1260.66 5.5 1267.33 7.83333 1273 12.5C1278.66 16.8333 1281.5 23 1281.5 31V110L1312.5 81L1399.5 13.5C1406.83 8.16666 1414 5.5 1421 5.5C1428 5.5 1433.83 7.83333 1438.5 12.5C1443.5 17.1666 1446 22.8333 1446 29.5C1446 39.1667 1441 48 1431 56L1349.5 121.5L1433.5 206.5ZM1693.34 5.5C1701.01 5.5 1707.68 7.66666 1713.34 12C1719.01 16.3333 1721.84 22.1667 1721.84 29.5V235.5C1721.84 243.167 1719.01 249.167 1713.34 253.5C1707.68 257.833 1701.01 260 1693.34 260C1686.01 260 1679.34 257.833 1673.34 253.5C1667.68 249.167 1664.84 243.167 1664.84 235.5V93L1531.34 252C1526.34 257.333 1519.01 260 1509.34 260C1502.01 260 1495.34 257.833 1489.34 253.5C1483.68 249.167 1480.84 243.167 1480.84 235.5V30C1480.84 22.3333 1483.68 16.3333 1489.34 12C1495.34 7.66666 1502.01 5.5 1509.34 5.5C1517.01 5.5 1523.68 7.66666 1529.34 12C1535.01 16.3333 1537.84 22.1667 1537.84 29.5V173L1671.34 14C1676.01 8.33333 1683.34 5.5 1693.34 5.5Z" fill="#E9FA9C"/>
</svg>
