<svg width="72" height="72" viewBox="0 0 72 72" fill="none" xmlns="http://www.w3.org/2000/svg">
<path d="M28.3079 25.6401C28.6326 26.156 28.5066 27.5948 28.0321 27.8591C27.1542 28.1518 26.5022 26.436 26.9214 25.9184C27.1205 25.4958 28.0312 25.1866 28.3079 25.6401Z" fill="#E9FA9C"/>
<path d="M62.7208 43.2892C64.1582 25.7079 45.5253 14.0382 29.6966 15.2998C21.4252 16.0736 11.6369 19.0569 8.34917 27.5181C4.35373 37.233 12.6611 47.8706 21.6782 50.8062C25.077 52.0278 28.5931 53.1719 32.2191 53.0177C34.0791 52.8192 40.0273 52.3482 40.2601 49.9612C39.9712 48.4786 33.0599 50.2291 34.1572 48.3014C35.2567 47.1193 43.2771 47.176 41.3658 44.6908C39.4834 44.0916 37.4804 44.3921 35.5413 44.4175C34.9846 44.4986 33.8473 44.7007 34.7088 43.8634C36.3838 42.8449 37.649 43.0326 39.4226 42.196C40.6215 41.88 43.272 40.0878 41.085 39.6987C39.4676 39.5898 37.6812 39.7766 36.0929 39.9795C35.4342 40.0615 34.5359 39.8261 33.8739 39.7037C31.3072 38.5586 38.7516 37.0345 36.6445 35.5415C35.4429 35.0556 33.6722 36.0271 32.4848 36.3765C29.1223 37.4931 24.9567 37.6569 21.6682 36.384C21.5331 36.3458 20.497 35.613 20.0033 35.2758C20.0194 35.2263 20.4421 34.5214 20.5574 34.4434C22.5789 33.1137 22.992 29.9414 20.8307 28.6188C22.7153 27.1077 25.4141 26.0049 27.2068 24.4541C29.59 23.1587 29.7293 17.9951 31.9181 19.1812C33.1748 19.9144 33.1003 22.1298 34.1396 23.0625C36.3805 24.5068 35.8094 18.331 38.5751 20.0086C39.336 20.5409 39.8212 20.3434 40.24 21.1168C42.2072 24.7619 47.3044 25.5853 49.121 29.4311C51.8263 33.903 50.701 39.906 47.7445 44.1317C46.8725 45.7018 45.5586 46.5841 44.9739 48.2938C44.7907 50.9934 47.3864 48.7445 48.5794 48.2913C49.2786 48.047 49.2056 49.3331 48.8578 49.6779C47.4161 51.6215 44.5157 52.2933 43.314 54.3967C42.4029 58.4183 49.7124 52.9449 50.8009 52.1727C50.9754 52.0565 51.4581 52.5585 51.6334 52.7268C52.0342 53.6732 50.5762 54.5688 49.971 55.2241C49.0765 56.0094 44.8904 58.0968 47.7545 58.5539C49.4778 58.2816 51.0749 57.8945 52.4683 56.8865C52.8365 56.581 54.7607 54.3969 54.409 55.7757C54.0343 57.0876 51.1699 58.7314 51.6384 59.9379C53.2477 61.6328 55.8288 58.5617 56.9063 57.4381C60.2084 53.4295 62.2396 48.4356 62.7208 43.2892V43.2892Z" fill="#E9FA9C"/>
<path d="M33.1712 25.9037C33.4959 26.4197 33.3699 27.8585 32.8954 28.1227C32.0175 28.4155 31.3655 26.6996 31.7847 26.1821C31.9838 25.7595 32.8945 25.4503 33.1712 25.9037Z" fill="#E9FA9C"/>
</svg>
